<svg version="1.1" xmlns="http://www.w3.org/2000/svg" viewBox="0 0 1341 426" width="1341" height="426">
  <!-- svg-source:excalidraw -->
  
  <defs>
    <style class="style-fonts">
      @font-face {
        font-family: "Virgil";
        src: url("https://excalidraw.com/Virgil.woff2");
      }
      @font-face {
        font-family: "Cascadia";
        src: url("https://excalidraw.com/Cascadia.woff2");
      }
    </style>
  </defs>
  <rect x="0" y="0" width="1341" height="426" fill="#ffffff"></rect><g stroke-linecap="round"><g transform="translate(200 72) rotate(0 -1 108.5)"><path d="M0 0 C-0.33 36.17, -1.67 180.83, -2 217 M0 0 C-0.33 36.17, -1.67 180.83, -2 217" stroke="#000000" stroke-width="1" fill="none"></path></g></g><mask></mask><g stroke-linecap="round"><g transform="translate(197 286) rotate(0 69 0)"><path d="M0 0 C23 0, 115 0, 138 0 M0 0 C23 0, 115 0, 138 0" stroke="#000000" stroke-width="1" fill="none"></path></g></g><mask></mask><g stroke-linecap="round"><g transform="translate(336 70.5) rotate(0 -1 110.5)"><path d="M0 0 C-0.33 36.83, -1.67 184.17, -2 221 M0 0 C-0.33 36.83, -1.67 184.17, -2 221" stroke="#000000" stroke-width="1" fill="none"></path></g></g><mask></mask><g stroke-linecap="round" transform="translate(203 239) rotate(0 64 20)"><path d="M10 0 M10 0 C40.36 0, 70.72 0, 118 0 M10 0 C45.98 0, 81.97 0, 118 0 M118 0 C124.67 0, 128 3.33, 128 10 M118 0 C124.67 0, 128 3.33, 128 10 M128 10 C128 16.47, 128 22.94, 128 30 M128 10 C128 14.08, 128 18.16, 128 30 M128 30 C128 36.67, 124.67 40, 118 40 M128 30 C128 36.67, 124.67 40, 118 40 M118 40 C92.8 40, 67.61 40, 10 40 M118 40 C87.09 40, 56.18 40, 10 40 M10 40 C3.33 40, 0 36.67, 0 30 M10 40 C3.33 40, 0 36.67, 0 30 M0 30 C0 25.2, 0 20.39, 0 10 M0 30 C0 24.97, 0 19.94, 0 10 M0 10 C0 3.33, 3.33 0, 10 0 M0 10 C0 3.33, 3.33 0, 10 0" stroke="#000000" stroke-width="1" fill="none"></path></g><g transform="translate(255.876953125 247.5) rotate(0 11.123046875 11.5)"><text x="11.123046875" y="0" font-family="Helvetica, Segoe UI Emoji" font-size="20px" fill="#000000" text-anchor="middle" style="white-space: pre;" direction="ltr" dominant-baseline="text-before-edge">e1</text></g><g stroke-linecap="round" transform="translate(203 195) rotate(0 64 20)"><path d="M10 0 M10 0 C40.36 0, 70.72 0, 118 0 M10 0 C45.98 0, 81.97 0, 118 0 M118 0 C124.67 0, 128 3.33, 128 10 M118 0 C124.67 0, 128 3.33, 128 10 M128 10 C128 16.47, 128 22.94, 128 30 M128 10 C128 14.08, 128 18.16, 128 30 M128 30 C128 36.67, 124.67 40, 118 40 M128 30 C128 36.67, 124.67 40, 118 40 M118 40 C92.8 40, 67.61 40, 10 40 M118 40 C87.09 40, 56.18 40, 10 40 M10 40 C3.33 40, 0 36.67, 0 30 M10 40 C3.33 40, 0 36.67, 0 30 M0 30 C0 25.2, 0 20.39, 0 10 M0 30 C0 24.97, 0 19.94, 0 10 M0 10 C0 3.33, 3.33 0, 10 0 M0 10 C0 3.33, 3.33 0, 10 0" stroke="#000000" stroke-width="1" fill="none"></path></g><g transform="translate(255.876953125 203.5) rotate(0 11.123046875 11.5)"><text x="11.123046875" y="0" font-family="Helvetica, Segoe UI Emoji" font-size="20px" fill="#000000" text-anchor="middle" style="white-space: pre;" direction="ltr" dominant-baseline="text-before-edge">e2</text></g><g stroke-linecap="round" transform="translate(204 151) rotate(0 64 20)"><path d="M10 0 M10 0 C40.36 0, 70.72 0, 118 0 M10 0 C45.98 0, 81.97 0, 118 0 M118 0 C124.67 0, 128 3.33, 128 10 M118 0 C124.67 0, 128 3.33, 128 10 M128 10 C128 16.47, 128 22.94, 128 30 M128 10 C128 14.08, 128 18.16, 128 30 M128 30 C128 36.67, 124.67 40, 118 40 M128 30 C128 36.67, 124.67 40, 118 40 M118 40 C92.8 40, 67.61 40, 10 40 M118 40 C87.09 40, 56.18 40, 10 40 M10 40 C3.33 40, 0 36.67, 0 30 M10 40 C3.33 40, 0 36.67, 0 30 M0 30 C0 25.2, 0 20.39, 0 10 M0 30 C0 24.97, 0 19.94, 0 10 M0 10 C0 3.33, 3.33 0, 10 0 M0 10 C0 3.33, 3.33 0, 10 0" stroke="#000000" stroke-width="1" fill="none"></path></g><g transform="translate(256.876953125 159.5) rotate(0 11.123046875 11.5)"><text x="11.123046875" y="0" font-family="Helvetica, Segoe UI Emoji" font-size="20px" fill="#000000" text-anchor="middle" style="white-space: pre;" direction="ltr" dominant-baseline="text-before-edge">e3</text></g><g stroke-linecap="round" transform="translate(204 103) rotate(0 64 20)"><path d="M10 0 M10 0 C40.36 0, 70.72 0, 118 0 M10 0 C45.98 0, 81.97 0, 118 0 M118 0 C124.67 0, 128 3.33, 128 10 M118 0 C124.67 0, 128 3.33, 128 10 M128 10 C128 16.47, 128 22.94, 128 30 M128 10 C128 14.08, 128 18.16, 128 30 M128 30 C128 36.67, 124.67 40, 118 40 M128 30 C128 36.67, 124.67 40, 118 40 M118 40 C92.8 40, 67.61 40, 10 40 M118 40 C87.09 40, 56.18 40, 10 40 M10 40 C3.33 40, 0 36.67, 0 30 M10 40 C3.33 40, 0 36.67, 0 30 M0 30 C0 25.2, 0 20.39, 0 10 M0 30 C0 24.97, 0 19.94, 0 10 M0 10 C0 3.33, 3.33 0, 10 0 M0 10 C0 3.33, 3.33 0, 10 0" stroke="#000000" stroke-width="1" fill="none"></path></g><g transform="translate(256.876953125 111.5) rotate(0 11.123046875 11.5)"><text x="11.123046875" y="0" font-family="Helvetica, Segoe UI Emoji" font-size="20px" fill="#000000" text-anchor="middle" style="white-space: pre;" direction="ltr" dominant-baseline="text-before-edge">e4</text></g><g transform="translate(242 24) rotate(0 21.6796875 11.5)"><text x="0" y="0" font-family="Helvetica, Segoe UI Emoji" font-size="20px" fill="#000000" text-anchor="start" style="white-space: pre;" direction="ltr" dominant-baseline="text-before-edge">PILA</text></g><g stroke-linecap="round" transform="translate(10 10) rotate(0 177.5 147.5)"><path d="M32 0 M32 0 C96.24 0, 160.48 0, 323 0 M32 0 C112.22 0, 192.44 0, 323 0 M323 0 C344.33 0, 355 10.67, 355 32 M323 0 C344.33 0, 355 10.67, 355 32 M355 32 C355 107.78, 355 183.55, 355 263 M355 32 C355 79.87, 355 127.75, 355 263 M355 263 C355 284.33, 344.33 295, 323 295 M355 263 C355 284.33, 344.33 295, 323 295 M323 295 C236.79 295, 150.59 295, 32 295 M323 295 C210.25 295, 97.5 295, 32 295 M32 295 C10.67 295, 0 284.33, 0 263 M32 295 C10.67 295, 0 284.33, 0 263 M0 263 C0 181.91, 0 100.82, 0 32 M0 263 C0 178.71, 0 94.43, 0 32 M0 32 C0 10.67, 10.67 0, 32 0 M0 32 C0 10.67, 10.67 0, 32 0" stroke="#000000" stroke-width="1" fill="none"></path></g><g stroke-linecap="round"><g transform="translate(640 162.5) rotate(0 -1 108.5)"><path d="M0 0 C-0.33 36.17, -1.67 180.83, -2 217 M0 0 C-0.33 36.17, -1.67 180.83, -2 217" stroke="#000000" stroke-width="1" fill="none"></path></g></g><mask></mask><g stroke-linecap="round"><g transform="translate(637 376.5) rotate(0 69 0)"><path d="M0 0 C23 0, 115 0, 138 0 M0 0 C23 0, 115 0, 138 0" stroke="#000000" stroke-width="1" fill="none"></path></g></g><mask></mask><g stroke-linecap="round" transform="translate(643 329.5) rotate(0 64 20)"><path d="M10 0 M10 0 C40.36 0, 70.72 0, 118 0 M10 0 C45.98 0, 81.97 0, 118 0 M118 0 C124.67 0, 128 3.33, 128 10 M118 0 C124.67 0, 128 3.33, 128 10 M128 10 C128 16.47, 128 22.94, 128 30 M128 10 C128 14.08, 128 18.16, 128 30 M128 30 C128 36.67, 124.67 40, 118 40 M128 30 C128 36.67, 124.67 40, 118 40 M118 40 C92.8 40, 67.61 40, 10 40 M118 40 C87.09 40, 56.18 40, 10 40 M10 40 C3.33 40, 0 36.67, 0 30 M10 40 C3.33 40, 0 36.67, 0 30 M0 30 C0 25.2, 0 20.39, 0 10 M0 30 C0 24.97, 0 19.94, 0 10 M0 10 C0 3.33, 3.33 0, 10 0 M0 10 C0 3.33, 3.33 0, 10 0" stroke="#000000" stroke-width="1" fill="none"></path></g><g transform="translate(695.876953125 338) rotate(0 11.123046875 11.5)"><text x="11.123046875" y="0" font-family="Helvetica, Segoe UI Emoji" font-size="20px" fill="#000000" text-anchor="middle" style="white-space: pre;" direction="ltr" dominant-baseline="text-before-edge">e1</text></g><g stroke-linecap="round" transform="translate(643 285.5) rotate(0 64 20)"><path d="M10 0 M10 0 C40.36 0, 70.72 0, 118 0 M10 0 C45.98 0, 81.97 0, 118 0 M118 0 C124.67 0, 128 3.33, 128 10 M118 0 C124.67 0, 128 3.33, 128 10 M128 10 C128 16.47, 128 22.94, 128 30 M128 10 C128 14.08, 128 18.16, 128 30 M128 30 C128 36.67, 124.67 40, 118 40 M128 30 C128 36.67, 124.67 40, 118 40 M118 40 C92.8 40, 67.61 40, 10 40 M118 40 C87.09 40, 56.18 40, 10 40 M10 40 C3.33 40, 0 36.67, 0 30 M10 40 C3.33 40, 0 36.67, 0 30 M0 30 C0 25.2, 0 20.39, 0 10 M0 30 C0 24.97, 0 19.94, 0 10 M0 10 C0 3.33, 3.33 0, 10 0 M0 10 C0 3.33, 3.33 0, 10 0" stroke="#000000" stroke-width="1" fill="none"></path></g><g transform="translate(695.876953125 294) rotate(0 11.123046875 11.5)"><text x="11.123046875" y="0" font-family="Helvetica, Segoe UI Emoji" font-size="20px" fill="#000000" text-anchor="middle" style="white-space: pre;" direction="ltr" dominant-baseline="text-before-edge">e2</text></g><g stroke-linecap="round" transform="translate(644 241.5) rotate(0 64 20)"><path d="M10 0 M10 0 C40.36 0, 70.72 0, 118 0 M10 0 C45.98 0, 81.97 0, 118 0 M118 0 C124.67 0, 128 3.33, 128 10 M118 0 C124.67 0, 128 3.33, 128 10 M128 10 C128 16.47, 128 22.94, 128 30 M128 10 C128 14.08, 128 18.16, 128 30 M128 30 C128 36.67, 124.67 40, 118 40 M128 30 C128 36.67, 124.67 40, 118 40 M118 40 C92.8 40, 67.61 40, 10 40 M118 40 C87.09 40, 56.18 40, 10 40 M10 40 C3.33 40, 0 36.67, 0 30 M10 40 C3.33 40, 0 36.67, 0 30 M0 30 C0 25.2, 0 20.39, 0 10 M0 30 C0 24.97, 0 19.94, 0 10 M0 10 C0 3.33, 3.33 0, 10 0 M0 10 C0 3.33, 3.33 0, 10 0" stroke="#000000" stroke-width="1" fill="none"></path></g><g transform="translate(696.876953125 250) rotate(0 11.123046875 11.5)"><text x="11.123046875" y="0" font-family="Helvetica, Segoe UI Emoji" font-size="20px" fill="#000000" text-anchor="middle" style="white-space: pre;" direction="ltr" dominant-baseline="text-before-edge">e3</text></g><g stroke-linecap="round" transform="translate(447 66.5) rotate(0 64 20)"><path d="M10 0 M10 0 C40.36 0, 70.72 0, 118 0 M10 0 C45.98 0, 81.97 0, 118 0 M118 0 C124.67 0, 128 3.33, 128 10 M118 0 C124.67 0, 128 3.33, 128 10 M128 10 C128 16.47, 128 22.94, 128 30 M128 10 C128 14.08, 128 18.16, 128 30 M128 30 C128 36.67, 124.67 40, 118 40 M128 30 C128 36.67, 124.67 40, 118 40 M118 40 C92.8 40, 67.61 40, 10 40 M118 40 C87.09 40, 56.18 40, 10 40 M10 40 C3.33 40, 0 36.67, 0 30 M10 40 C3.33 40, 0 36.67, 0 30 M0 30 C0 25.2, 0 20.39, 0 10 M0 30 C0 24.97, 0 19.94, 0 10 M0 10 C0 3.33, 3.33 0, 10 0 M0 10 C0 3.33, 3.33 0, 10 0" stroke="#000000" stroke-width="1" fill="none"></path></g><g transform="translate(499.876953125 75) rotate(0 11.123046875 11.5)"><text x="11.123046875" y="0" font-family="Helvetica, Segoe UI Emoji" font-size="20px" fill="#000000" text-anchor="middle" style="white-space: pre;" direction="ltr" dominant-baseline="text-before-edge">e4</text></g><g stroke-linecap="round"><g transform="translate(778 162.5) rotate(0 -1 108.5)"><path d="M0 0 C-0.33 36.17, -1.67 180.83, -2 217 M0 0 C-0.33 36.17, -1.67 180.83, -2 217" stroke="#000000" stroke-width="1" fill="none"></path></g></g><mask></mask><g transform="translate(659 24) rotate(0 35.5712890625 11.5)"><text x="0" y="0" font-family="Helvetica, Segoe UI Emoji" font-size="20px" fill="#000000" text-anchor="start" style="white-space: pre;" direction="ltr" dominant-baseline="text-before-edge">APILAR</text></g><g transform="translate(599 99) rotate(0 52.5 33)" stroke="none"><path fill="#000000" d="M 0,-2.61 Q 0,-2.61 1.72,-2.55 3.44,-2.48 5.19,-2.57 6.93,-2.65 8.35,-2.72 9.77,-2.80 10.83,-3.03 11.88,-3.26 13.09,-3.50 14.31,-3.73 15.37,-3.81 16.44,-3.89 17.75,-3.89 19.06,-3.89 21.08,-4.31 23.10,-4.73 24.52,-4.77 25.94,-4.81 27.10,-4.83 28.27,-4.86 29.34,-4.88 30.41,-4.89 31.73,-4.88 33.05,-4.86 34.47,-4.83 35.89,-4.80 37.07,-4.80 38.25,-4.80 39.62,-4.78 40.98,-4.77 42.42,-4.74 43.86,-4.71 45.35,-4.68 46.83,-4.65 48.33,-4.34 49.84,-4.02 51.02,-3.92 52.21,-3.82 53.62,-3.44 55.03,-3.07 57.39,-2.59 59.74,-2.12 61.02,-1.64 62.30,-1.17 63.80,-0.29 65.30,0.58 66.42,1.17 67.54,1.76 68.59,2.29 69.65,2.81 70.67,3.31 71.70,3.82 73.07,4.70 74.45,5.57 75.53,6.17 76.61,6.76 77.52,7.37 78.44,7.97 80.40,8.96 82.35,9.95 83.29,11.00 84.23,12.05 85.16,12.57 86.09,13.10 87.25,14.14 88.41,15.17 89.52,16.67 90.64,18.17 91.85,19.68 93.05,21.19 93.61,22.29 94.16,23.39 94.65,25.04 95.14,26.69 96.09,28.50 97.03,30.31 97.20,32.01 97.36,33.72 97.75,35.56 98.15,37.40 98.27,38.74 98.39,40.07 98.42,41.15 98.45,42.22 98.45,43.65 98.45,45.07 98.46,46.15 98.47,47.22 98.49,48.74 98.51,50.25 98.52,51.75 98.53,53.26 98.54,54.76 98.56,56.26 98.56,57.76 98.57,59.26 98.58,60.76 98.59,62.26 98.29,63.34 98.00,64.43 98.01,64.05 98.03,63.68 97.97,64.11 97.92,64.54 97.77,64.95 97.61,65.36 97.37,65.71 97.12,66.07 96.79,66.36 96.47,66.65 96.08,66.85 95.70,67.05 95.28,67.16 94.85,67.26 94.42,67.26 93.99,67.26 93.56,67.16 93.14,67.05 92.76,66.85 92.37,66.65 92.05,66.36 91.72,66.07 91.47,65.71 91.23,65.36 91.07,64.95 90.92,64.54 90.87,64.11 90.81,63.68 91.28,64.66 91.74,65.64 90.55,65.19 89.36,64.74 88.28,64.03 87.20,63.32 86.42,62.51 85.63,61.70 84.92,61.32 84.22,60.94 83.82,60.76 83.43,60.58 83.09,60.32 82.75,60.05 82.48,59.71 82.22,59.36 82.04,58.97 81.86,58.57 81.79,58.15 81.71,57.72 81.74,57.29 81.77,56.86 81.89,56.45 82.02,56.03 82.25,55.66 82.47,55.29 82.78,54.99 83.09,54.68 83.46,54.46 83.83,54.24 84.24,54.11 84.66,53.98 85.09,53.96 85.52,53.93 85.95,54.01 86.37,54.09 87.30,56.82 88.22,59.54 87.85,58.10 87.47,56.67 88.41,58.00 89.34,59.33 90.16,60.10 90.97,60.86 92.23,62.12 93.48,63.38 94.71,63.64 95.93,63.90 97.51,64.17 99.09,64.44 99.42,63.22 99.76,61.99 100.39,60.95 101.02,59.92 101.29,58.38 101.56,56.84 101.83,56.32 102.11,55.80 102.53,55.40 102.96,54.99 103.49,54.75 104.03,54.50 104.61,54.44 105.19,54.37 105.77,54.50 106.34,54.63 106.84,54.93 107.34,55.23 107.72,55.68 108.10,56.13 108.32,56.67 108.54,57.22 108.57,57.80 108.60,58.39 108.44,58.95 108.29,59.52 107.96,60.00 107.63,60.49 107.16,60.85 106.69,61.20 106.14,61.39 105.58,61.57 104.99,61.57 104.41,61.57 103.85,61.39 103.29,61.20 102.83,60.84 102.36,60.49 102.03,60.00 101.70,59.52 101.55,58.95 101.39,58.39 101.42,57.80 101.45,57.21 101.67,56.67 101.89,56.12 102.27,55.68 102.65,55.23 103.15,54.93 103.65,54.62 104.23,54.50 104.80,54.37 105.38,54.44 105.97,54.50 106.50,54.75 107.03,54.99 107.46,55.40 107.88,55.80 108.16,56.32 108.43,56.84 108.53,57.42 108.62,58.00 108.53,58.58 108.43,59.15 108.43,59.15 108.43,59.15 107.97,60.12 107.51,61.09 107.02,62.70 106.54,64.31 106.22,66.27 105.91,68.23 105.09,69.28 104.27,70.32 102.86,70.93 101.45,71.54 100.16,71.52 98.87,71.51 97.38,71.01 95.90,70.51 94.59,70.37 93.29,70.23 91.68,69.67 90.08,69.10 88.44,67.95 86.81,66.80 86.07,65.64 85.33,64.49 84.47,63.84 83.60,63.20 83.11,61.75 82.63,60.30 82.33,58.17 82.03,56.04 83.12,58.49 84.22,60.94 83.82,60.76 83.43,60.58 83.09,60.32 82.75,60.05 82.48,59.71 82.22,59.37 82.04,58.97 81.86,58.57 81.79,58.15 81.71,57.72 81.74,57.29 81.76,56.86 81.89,56.45 82.02,56.03 82.25,55.66 82.47,55.29 82.78,54.99 83.09,54.68 83.46,54.46 83.83,54.24 84.24,54.11 84.66,53.98 85.09,53.96 85.52,53.93 85.95,54.01 86.37,54.09 87.66,55.01 88.95,55.94 90.49,56.89 92.02,57.84 93.24,58.75 94.47,59.66 95.54,60.29 96.61,60.93 97.32,62.31 98.03,63.68 97.97,64.11 97.92,64.54 97.77,64.95 97.61,65.36 97.37,65.71 97.12,66.07 96.79,66.36 96.47,66.65 96.08,66.85 95.70,67.05 95.28,67.16 94.85,67.26 94.42,67.26 93.99,67.26 93.56,67.16 93.14,67.05 92.76,66.85 92.37,66.65 92.05,66.36 91.72,66.07 91.47,65.71 91.23,65.36 91.07,64.95 90.92,64.54 90.87,64.11 90.81,63.68 91.11,62.47 91.41,61.26 91.42,59.76 91.42,58.26 91.43,56.76 91.44,55.26 91.45,53.76 91.46,52.26 91.48,50.75 91.49,49.25 91.51,47.72 91.53,46.18 91.54,45.01 91.54,43.84 91.54,42.10 91.53,40.36 91.44,39.11 91.36,37.86 90.97,36.53 90.57,35.19 90.63,33.65 90.68,32.12 90.18,31.05 89.69,29.98 89.20,28.48 88.72,26.97 87.85,25.21 86.97,23.46 86.30,22.27 85.64,21.09 84.43,19.79 83.22,18.49 82.45,17.72 81.68,16.95 80.80,16.28 79.92,15.60 79.03,14.65 78.15,13.69 76.10,12.54 74.04,11.38 72.87,10.72 71.70,10.06 70.48,9.35 69.26,8.64 68.23,8.10 67.20,7.56 66.13,6.99 65.06,6.42 63.89,5.79 62.71,5.16 61.53,4.52 60.34,3.88 59.35,3.48 58.36,3.09 57.20,2.78 56.05,2.48 53.88,1.97 51.72,1.46 49.26,1.05 46.80,0.65 45.33,0.68 43.86,0.71 42.42,0.74 40.98,0.77 39.62,0.79 38.25,0.81 37.08,0.80 35.90,0.80 34.48,0.84 33.07,0.87 30.72,0.90 28.38,0.93 27.28,0.95 26.18,0.97 24.14,1.11 22.10,1.26 20.65,1.61 19.20,1.96 17.98,2.00 16.77,2.04 15.43,2.07 14.09,2.11 11.93,2.45 9.77,2.80 8.35,2.72 6.93,2.65 5.19,2.57 3.44,2.48 1.72,2.55 0,2.61 -0.31,2.57 -0.62,2.53 -0.92,2.42 -1.21,2.31 -1.47,2.13 -1.73,1.95 -1.94,1.72 -2.15,1.48 -2.29,1.20 -2.44,0.92 -2.52,0.62 -2.59,0.31 -2.59,-0.00 -2.59,-0.31 -2.52,-0.62 -2.44,-0.92 -2.29,-1.20 -2.15,-1.48 -1.94,-1.72 -1.73,-1.95 -1.47,-2.13 -1.21,-2.31 -0.92,-2.42 -0.62,-2.53 -0.31,-2.57 0.00,-2.61 0.00,-2.61 L 0,-2.61 Z"></path></g><g stroke-linecap="round" transform="translate(419 17) rotate(0 201 199.5)"><path d="M32 0 M32 0 C149.07 0, 266.14 0, 370 0 M32 0 C152.27 0, 272.55 0, 370 0 M370 0 C391.33 0, 402 10.67, 402 32 M370 0 C391.33 0, 402 10.67, 402 32 M402 32 C402 128.01, 402 224.02, 402 367 M402 32 C402 139.88, 402 247.75, 402 367 M402 367 C402 388.33, 391.33 399, 370 399 M402 367 C402 388.33, 391.33 399, 370 399 M370 399 C259.28 399, 148.55 399, 32 399 M370 399 C260.63 399, 151.26 399, 32 399 M32 399 C10.67 399, 0 388.33, 0 367 M32 399 C10.67 399, 0 388.33, 0 367 M0 367 C0 266.71, 0 166.43, 0 32 M0 367 C0 282.47, 0 197.94, 0 32 M0 32 C0 10.67, 10.67 0, 32 0 M0 32 C0 10.67, 10.67 0, 32 0" stroke="#000000" stroke-width="1" fill="none"></path></g><g transform="translate(1031 47) rotate(0 56.1328125 11.5)"><text x="0" y="0" font-family="Helvetica, Segoe UI Emoji" font-size="20px" fill="#000000" text-anchor="start" style="white-space: pre;" direction="ltr" dominant-baseline="text-before-edge">DESAPILAR</text></g><g stroke-linecap="round"><g transform="translate(975.5 169) rotate(0 -1 108.5)"><path d="M0 0 C-0.33 36.17, -1.67 180.83, -2 217 M0 0 C-0.33 36.17, -1.67 180.83, -2 217" stroke="#000000" stroke-width="1" fill="none"></path></g></g><mask></mask><g stroke-linecap="round"><g transform="translate(972.5 383) rotate(0 69 0)"><path d="M0 0 C23 0, 115 0, 138 0 M0 0 C23 0, 115 0, 138 0" stroke="#000000" stroke-width="1" fill="none"></path></g></g><mask></mask><g stroke-linecap="round"><g transform="translate(1111.5 167.5) rotate(0 -1 110.5)"><path d="M0 0 C-0.33 36.83, -1.67 184.17, -2 221 M0 0 C-0.33 36.83, -1.67 184.17, -2 221" stroke="#000000" stroke-width="1" fill="none"></path></g></g><mask></mask><g stroke-linecap="round" transform="translate(978.5 336) rotate(0 64 20)"><path d="M10 0 M10 0 C40.36 0, 70.72 0, 118 0 M10 0 C45.98 0, 81.97 0, 118 0 M118 0 C124.67 0, 128 3.33, 128 10 M118 0 C124.67 0, 128 3.33, 128 10 M128 10 C128 16.47, 128 22.94, 128 30 M128 10 C128 14.08, 128 18.16, 128 30 M128 30 C128 36.67, 124.67 40, 118 40 M128 30 C128 36.67, 124.67 40, 118 40 M118 40 C92.8 40, 67.61 40, 10 40 M118 40 C87.09 40, 56.18 40, 10 40 M10 40 C3.33 40, 0 36.67, 0 30 M10 40 C3.33 40, 0 36.67, 0 30 M0 30 C0 25.2, 0 20.39, 0 10 M0 30 C0 24.97, 0 19.94, 0 10 M0 10 C0 3.33, 3.33 0, 10 0 M0 10 C0 3.33, 3.33 0, 10 0" stroke="#000000" stroke-width="1" fill="none"></path></g><g transform="translate(1031.376953125 344.5) rotate(0 11.123046875 11.5)"><text x="11.123046875" y="0" font-family="Helvetica, Segoe UI Emoji" font-size="20px" fill="#000000" text-anchor="middle" style="white-space: pre;" direction="ltr" dominant-baseline="text-before-edge">e1</text></g><g stroke-linecap="round" transform="translate(978.5 292) rotate(0 64 20)"><path d="M10 0 M10 0 C40.36 0, 70.72 0, 118 0 M10 0 C45.98 0, 81.97 0, 118 0 M118 0 C124.67 0, 128 3.33, 128 10 M118 0 C124.67 0, 128 3.33, 128 10 M128 10 C128 16.47, 128 22.94, 128 30 M128 10 C128 14.08, 128 18.16, 128 30 M128 30 C128 36.67, 124.67 40, 118 40 M128 30 C128 36.67, 124.67 40, 118 40 M118 40 C92.8 40, 67.61 40, 10 40 M118 40 C87.09 40, 56.18 40, 10 40 M10 40 C3.33 40, 0 36.67, 0 30 M10 40 C3.33 40, 0 36.67, 0 30 M0 30 C0 25.2, 0 20.39, 0 10 M0 30 C0 24.97, 0 19.94, 0 10 M0 10 C0 3.33, 3.33 0, 10 0 M0 10 C0 3.33, 3.33 0, 10 0" stroke="#000000" stroke-width="1" fill="none"></path></g><g transform="translate(1031.376953125 300.5) rotate(0 11.123046875 11.5)"><text x="11.123046875" y="0" font-family="Helvetica, Segoe UI Emoji" font-size="20px" fill="#000000" text-anchor="middle" style="white-space: pre;" direction="ltr" dominant-baseline="text-before-edge">e2</text></g><g stroke-linecap="round" transform="translate(979.5 248) rotate(0 64 20)"><path d="M10 0 M10 0 C40.36 0, 70.72 0, 118 0 M10 0 C45.98 0, 81.97 0, 118 0 M118 0 C124.67 0, 128 3.33, 128 10 M118 0 C124.67 0, 128 3.33, 128 10 M128 10 C128 16.47, 128 22.94, 128 30 M128 10 C128 14.08, 128 18.16, 128 30 M128 30 C128 36.67, 124.67 40, 118 40 M128 30 C128 36.67, 124.67 40, 118 40 M118 40 C92.8 40, 67.61 40, 10 40 M118 40 C87.09 40, 56.18 40, 10 40 M10 40 C3.33 40, 0 36.67, 0 30 M10 40 C3.33 40, 0 36.67, 0 30 M0 30 C0 25.2, 0 20.39, 0 10 M0 30 C0 24.97, 0 19.94, 0 10 M0 10 C0 3.33, 3.33 0, 10 0 M0 10 C0 3.33, 3.33 0, 10 0" stroke="#000000" stroke-width="1" fill="none"></path></g><g transform="translate(1032.376953125 256.5) rotate(0 11.123046875 11.5)"><text x="11.123046875" y="0" font-family="Helvetica, Segoe UI Emoji" font-size="20px" fill="#000000" text-anchor="middle" style="white-space: pre;" direction="ltr" dominant-baseline="text-before-edge">e3</text></g><g stroke-linecap="round" transform="translate(1177.5 119) rotate(0 64 20)"><path d="M10 0 M10 0 C40.36 0, 70.72 0, 118 0 M10 0 C45.98 0, 81.97 0, 118 0 M118 0 C124.67 0, 128 3.33, 128 10 M118 0 C124.67 0, 128 3.33, 128 10 M128 10 C128 16.47, 128 22.94, 128 30 M128 10 C128 14.08, 128 18.16, 128 30 M128 30 C128 36.67, 124.67 40, 118 40 M128 30 C128 36.67, 124.67 40, 118 40 M118 40 C92.8 40, 67.61 40, 10 40 M118 40 C87.09 40, 56.18 40, 10 40 M10 40 C3.33 40, 0 36.67, 0 30 M10 40 C3.33 40, 0 36.67, 0 30 M0 30 C0 25.2, 0 20.39, 0 10 M0 30 C0 24.97, 0 19.94, 0 10 M0 10 C0 3.33, 3.33 0, 10 0 M0 10 C0 3.33, 3.33 0, 10 0" stroke="#000000" stroke-width="1" fill="none"></path></g><g transform="translate(1230.376953125 127.5) rotate(0 11.123046875 11.5)"><text x="11.123046875" y="0" font-family="Helvetica, Segoe UI Emoji" font-size="20px" fill="#000000" text-anchor="middle" style="white-space: pre;" direction="ltr" dominant-baseline="text-before-edge">e4</text></g><g transform="translate(1034 213) rotate(0 59 -45.5)" stroke="none"><path fill="#000000" d="M -2.37,-0.59 Q -2.37,-0.59 -1.65,-2.85 -0.94,-5.12 -0.72,-6.58 -0.50,-8.04 -0.46,-9.20 -0.41,-10.36 -0.11,-12.75 0.18,-15.14 0.24,-16.90 0.30,-18.66 0.64,-20.18 0.99,-21.70 1.44,-22.98 1.89,-24.25 2.04,-26.24 2.19,-28.23 2.55,-29.64 2.90,-31.06 3.37,-33.21 3.84,-35.37 3.94,-37.04 4.05,-38.71 4.42,-40.05 4.79,-41.39 5.32,-42.41 5.85,-43.43 6.35,-45.00 6.84,-46.57 7.27,-47.66 7.69,-48.76 8.23,-50.55 8.77,-52.34 9.68,-54.15 10.58,-55.96 11.07,-56.92 11.56,-57.88 12.14,-59.63 12.73,-61.38 13.76,-63.11 14.78,-64.83 15.79,-66.39 16.81,-67.95 17.90,-68.81 18.98,-69.67 20.88,-71.17 22.79,-72.67 23.84,-73.56 24.89,-74.44 26.32,-75.44 27.76,-76.43 29.48,-77.12 31.21,-77.81 32.75,-78.35 34.29,-78.89 35.78,-79.56 37.27,-80.24 39.35,-80.66 41.42,-81.08 42.55,-81.34 43.67,-81.60 44.92,-81.80 46.17,-82.00 47.27,-82.06 48.38,-82.12 50.73,-82.11 53.07,-82.10 55.42,-82.05 57.77,-81.99 58.98,-81.98 60.20,-81.96 61.58,-81.93 62.96,-81.89 64.12,-81.89 65.28,-81.89 66.63,-81.86 67.99,-81.84 69.72,-81.75 71.44,-81.66 73.04,-81.62 74.64,-81.57 75.89,-81.59 77.14,-81.60 78.54,-81.59 79.93,-81.59 81.10,-81.61 82.27,-81.63 83.35,-81.65 84.42,-81.68 86.02,-81.35 87.61,-81.03 88.88,-80.91 90.15,-80.80 91.39,-80.41 92.63,-80.03 93.92,-79.97 95.22,-79.90 96.65,-79.93 98.07,-79.95 100.28,-79.62 102.49,-79.28 104.34,-79.00 106.18,-78.71 107.15,-78.06 108.12,-77.40 109.59,-76.48 111.06,-75.55 111.01,-75.57 110.96,-75.59 111.31,-75.40 111.66,-75.21 111.95,-74.94 112.25,-74.68 112.47,-74.35 112.69,-74.01 112.83,-73.64 112.97,-73.27 113.01,-72.87 113.05,-72.47 113.00,-72.08 112.95,-71.69 112.80,-71.32 112.65,-70.94 112.42,-70.62 112.19,-70.30 111.89,-70.04 111.59,-69.77 111.24,-69.59 110.88,-69.41 110.49,-69.32 110.11,-69.23 109.71,-69.24 109.31,-69.24 108.92,-69.34 108.54,-69.44 107.74,-71.82 106.94,-74.20 106.76,-75.74 106.59,-77.27 106.13,-78.52 105.68,-79.78 104.80,-80.98 103.92,-82.19 103.29,-83.15 102.65,-84.12 101.98,-85.36 101.31,-86.59 100.08,-87.08 98.86,-87.56 98.59,-87.89 98.31,-88.22 98.13,-88.60 97.94,-88.99 97.85,-89.40 97.76,-89.82 97.78,-90.25 97.79,-90.68 97.91,-91.09 98.02,-91.50 98.23,-91.87 98.44,-92.24 98.74,-92.55 99.03,-92.86 99.39,-93.10 99.75,-93.33 100.15,-93.47 100.56,-93.60 100.98,-93.64 101.41,-93.68 101.83,-93.61 102.25,-93.55 102.65,-93.39 103.04,-93.22 103.38,-92.97 103.73,-92.71 105.43,-90.88 107.14,-89.05 107.94,-88.14 108.73,-87.24 110.17,-86.26 111.61,-85.27 112.99,-84.32 114.36,-83.36 115.47,-81.92 116.57,-80.48 118.04,-79.48 119.51,-78.48 120.30,-77.69 121.09,-76.90 121.32,-75.40 121.56,-73.90 121.26,-72.71 120.96,-71.52 120.26,-70.45 119.56,-69.39 118.23,-68.61 116.91,-67.83 115.39,-66.83 113.87,-65.83 112.29,-65.28 110.71,-64.72 109.22,-64.21 107.73,-63.70 106.93,-62.91 106.14,-62.13 105.76,-61.68 105.38,-61.23 104.87,-60.92 104.37,-60.61 103.79,-60.48 103.22,-60.35 102.63,-60.41 102.04,-60.47 101.50,-60.72 100.96,-60.96 100.53,-61.36 100.10,-61.77 99.82,-62.29 99.54,-62.81 99.44,-63.39 99.34,-63.97 99.44,-64.56 99.53,-65.14 99.80,-65.66 100.07,-66.19 100.50,-66.60 100.93,-67.00 101.46,-67.26 102.00,-67.51 102.58,-67.57 103.17,-67.64 103.75,-67.52 104.33,-67.40 104.83,-67.09 105.34,-66.79 105.73,-66.34 106.11,-65.90 106.33,-65.35 106.56,-64.80 106.59,-64.21 106.63,-63.62 106.47,-63.05 106.32,-62.48 105.99,-61.99 105.66,-61.50 105.19,-61.14 104.72,-60.78 104.17,-60.59 103.61,-60.40 103.02,-60.39 102.43,-60.39 101.86,-60.57 101.30,-60.76 100.83,-61.11 100.36,-61.47 100.02,-61.96 99.69,-62.44 99.53,-63.01 99.37,-63.58 99.40,-64.17 99.42,-64.76 99.64,-65.31 99.86,-65.86 99.85,-65.86 99.85,-65.86 101.68,-67.59 103.50,-69.32 105.58,-70.04 107.65,-70.77 109.10,-71.23 110.56,-71.68 111.59,-72.57 112.63,-73.47 114.09,-73.45 115.55,-73.44 114.18,-74.30 112.81,-75.16 111.36,-76.61 109.90,-78.05 108.91,-78.58 107.91,-79.12 106.85,-80.12 105.80,-81.13 104.79,-81.72 103.79,-82.31 102.78,-83.73 101.77,-85.15 100.31,-86.35 98.86,-87.56 98.59,-87.89 98.32,-88.22 98.13,-88.60 97.94,-88.99 97.85,-89.40 97.76,-89.82 97.78,-90.25 97.79,-90.68 97.91,-91.09 98.02,-91.50 98.23,-91.87 98.44,-92.24 98.74,-92.55 99.03,-92.86 99.39,-93.09 99.75,-93.33 100.15,-93.47 100.56,-93.60 100.98,-93.64 101.41,-93.68 101.83,-93.62 102.25,-93.55 102.65,-93.39 103.04,-93.22 103.38,-92.97 103.73,-92.71 102.67,-93.00 101.61,-93.30 103.50,-92.49 105.38,-91.68 106.32,-90.76 107.27,-89.83 107.84,-88.73 108.41,-87.63 109.02,-86.48 109.62,-85.33 110.51,-84.23 111.40,-83.13 112.12,-81.26 112.85,-79.38 113.12,-78.32 113.40,-77.26 113.36,-75.76 113.32,-74.25 113.08,-72.82 112.84,-71.38 111.90,-73.48 110.96,-75.59 111.31,-75.40 111.66,-75.21 111.95,-74.94 112.25,-74.68 112.47,-74.35 112.69,-74.01 112.83,-73.64 112.97,-73.27 113.01,-72.87 113.05,-72.48 113.00,-72.08 112.95,-71.69 112.80,-71.32 112.65,-70.95 112.42,-70.62 112.19,-70.30 111.89,-70.04 111.59,-69.78 111.24,-69.59 110.88,-69.41 110.49,-69.32 110.11,-69.23 109.71,-69.24 109.31,-69.24 108.92,-69.34 108.54,-69.44 108.14,-70.03 107.74,-70.62 106.55,-71.26 105.36,-71.89 103.90,-72.54 102.45,-73.19 101.06,-73.61 99.68,-74.03 98.15,-74.09 96.62,-74.15 94.90,-74.32 93.17,-74.48 91.41,-75.02 89.64,-75.55 88.06,-75.68 86.48,-75.81 85.44,-76.06 84.40,-76.31 83.33,-76.34 82.27,-76.36 81.10,-76.38 79.93,-76.40 78.54,-76.40 77.14,-76.39 75.89,-76.40 74.64,-76.42 73.04,-76.37 71.44,-76.33 69.72,-76.24 67.99,-76.15 66.64,-76.12 65.28,-76.10 64.12,-76.10 62.96,-76.09 61.58,-76.06 60.20,-76.02 58.99,-76.01 57.78,-75.99 55.45,-75.92 53.12,-75.86 50.93,-75.78 48.74,-75.71 47.27,-75.60 45.80,-75.49 44.51,-75.11 43.23,-74.72 41.59,-74.59 39.95,-74.46 38.96,-73.99 37.97,-73.51 36.47,-73.02 34.98,-72.53 33.55,-72.04 32.13,-71.56 30.98,-71.09 29.84,-70.62 28.69,-69.86 27.54,-69.10 26.01,-67.97 24.48,-66.83 23.58,-65.74 22.68,-64.65 21.82,-63.92 20.96,-63.19 20.01,-61.74 19.07,-60.30 18.36,-59.09 17.64,-57.88 17.32,-56.55 16.99,-55.22 16.03,-53.28 15.06,-51.34 14.38,-50.19 13.70,-49.05 13.45,-47.80 13.20,-46.54 12.60,-44.87 12.00,-43.20 11.45,-41.83 10.90,-40.46 10.33,-39.38 9.76,-38.31 9.67,-37.20 9.58,-36.10 9.05,-34.08 8.53,-32.07 8.05,-29.98 7.57,-27.89 7.48,-26.44 7.40,-24.99 6.74,-22.73 6.09,-20.47 5.81,-19.41 5.53,-18.35 5.43,-17.26 5.33,-16.17 4.82,-14.21 4.30,-12.26 4.20,-11.12 4.11,-9.98 3.94,-8.67 3.78,-7.36 3.51,-5.72 3.24,-4.07 2.80,-1.74 2.37,0.59 2.27,0.86 2.16,1.14 1.99,1.38 1.82,1.62 1.60,1.82 1.38,2.01 1.12,2.15 0.86,2.29 0.57,2.36 0.28,2.43 -0.00,2.43 -0.30,2.42 -0.58,2.35 -0.87,2.28 -1.13,2.14 -1.39,2.01 -1.61,1.81 -1.83,1.61 -2.00,1.37 -2.17,1.13 -2.27,0.85 -2.37,0.57 -2.41,0.28 -2.44,-0.00 -2.41,-0.30 -2.37,-0.59 -2.37,-0.59 L -2.37,-0.59 Z"></path></g><g stroke-linecap="round" transform="translate(944 31) rotate(0 193.5 192.5)"><path d="M32 0 M32 0 C115.27 0, 198.54 0, 355 0 M32 0 C121.11 0, 210.22 0, 355 0 M355 0 C376.33 0, 387 10.67, 387 32 M355 0 C376.33 0, 387 10.67, 387 32 M387 32 C387 119.33, 387 206.66, 387 353 M387 32 C387 108.31, 387 184.62, 387 353 M387 353 C387 374.33, 376.33 385, 355 385 M387 353 C387 374.33, 376.33 385, 355 385 M355 385 C276.55 385, 198.11 385, 32 385 M355 385 C230.45 385, 105.9 385, 32 385 M32 385 C10.67 385, 0 374.33, 0 353 M32 385 C10.67 385, 0 374.33, 0 353 M0 353 C0 243.75, 0 134.5, 0 32 M0 353 C0 244.58, 0 136.16, 0 32 M0 32 C0 10.67, 10.67 0, 32 0 M0 32 C0 10.67, 10.67 0, 32 0" stroke="#000000" stroke-width="1" fill="none"></path></g><g mask="url(#mask-j3H2MZoiq6PFT6PSPSmiR)" stroke-linecap="round"><g transform="translate(103 124) rotate(0 44.5 0)"><path d="M0 0 C14.83 0, 74.17 0, 89 0 M0 0 C14.83 0, 74.17 0, 89 0" stroke="#000000" stroke-width="1" fill="none"></path></g><g transform="translate(103 124) rotate(0 44.5 0)"><path d="M60.81 10.26 C67.71 7.75, 74.61 5.24, 89 0 M60.81 10.26 C68.67 7.4, 76.53 4.54, 89 0" stroke="#000000" stroke-width="1" fill="none"></path></g><g transform="translate(103 124) rotate(0 44.5 0)"><path d="M60.81 -10.26 C67.71 -7.75, 74.61 -5.24, 89 0 M60.81 -10.26 C68.67 -7.4, 76.53 -4.54, 89 0" stroke="#000000" stroke-width="1" fill="none"></path></g></g><mask id="mask-j3H2MZoiq6PFT6PSPSmiR"><rect x="0" y="0" fill="#fff" width="292" height="224"></rect><rect x="128.037109375" y="112.5" fill="#000" width="38.92578125" height="23" opacity="1"></rect></mask><g transform="translate(128.037109375 112.5) rotate(0 19.462890625 11.5)"><text x="19.462890625" y="0" font-family="Helvetica, Segoe UI Emoji" font-size="20px" fill="#000000" text-anchor="middle" style="white-space: pre;" direction="ltr" dominant-baseline="text-before-edge">tope</text></g><g mask="url(#mask-wJW1IX-EMzima2Ike5oPR)" stroke-linecap="round"><g transform="translate(511.5 188) rotate(0 0.5 -38)"><path d="M0 0 C0.17 -12.67, 0.83 -63.33, 1 -76 M0 0 C0.17 -12.67, 0.83 -63.33, 1 -76" stroke="#000000" stroke-width="1" fill="none"></path></g><g transform="translate(511.5 188) rotate(0 0.5 -38)"><path d="M10.89 -47.68 C8.47 -54.61, 6.05 -61.54, 1 -76 M10.89 -47.68 C8.13 -55.57, 5.37 -63.47, 1 -76" stroke="#000000" stroke-width="1" fill="none"></path></g><g transform="translate(511.5 188) rotate(0 0.5 -38)"><path d="M-9.63 -47.95 C-7.03 -54.81, -4.43 -61.68, 1 -76 M-9.63 -47.95 C-6.67 -55.77, -3.7 -63.59, 1 -76" stroke="#000000" stroke-width="1" fill="none"></path></g></g><mask id="mask-wJW1IX-EMzima2Ike5oPR"><rect x="0" y="0" fill="#fff" width="612.5" height="364"></rect><rect x="492.537109375" y="138.5" fill="#000" width="38.92578125" height="23" opacity="1"></rect></mask><g transform="translate(492.537109375 138.5) rotate(0 19.462890625 11.5)"><text x="19.462890625" y="0" font-family="Helvetica, Segoe UI Emoji" font-size="20px" fill="#000000" text-anchor="middle" style="white-space: pre;" direction="ltr" dominant-baseline="text-before-edge">tope</text></g><g mask="url(#mask-j1ysGSDAMQrLmmce3j6rp)" stroke-linecap="round"><g transform="translate(1216.5 271) rotate(0 -50.5 -1.5)"><path d="M0 0 C-16.83 -0.5, -84.17 -2.5, -101 -3 M0 0 C-16.83 -0.5, -84.17 -2.5, -101 -3" stroke="#000000" stroke-width="1" fill="none"></path></g><g transform="translate(1216.5 271) rotate(0 -50.5 -1.5)"><path d="M-72.52 -12.42 C-79.49 -10.11, -86.46 -7.81, -101 -3 M-72.52 -12.42 C-80.46 -9.79, -88.4 -7.17, -101 -3" stroke="#000000" stroke-width="1" fill="none"></path></g><g transform="translate(1216.5 271) rotate(0 -50.5 -1.5)"><path d="M-73.13 8.09 C-79.95 5.38, -86.77 2.66, -101 -3 M-73.13 8.09 C-80.9 5, -88.67 1.91, -101 -3" stroke="#000000" stroke-width="1" fill="none"></path></g></g><mask id="mask-j1ysGSDAMQrLmmce3j6rp"><rect x="0" y="0" fill="#fff" width="1417.5" height="374"></rect><rect x="1146.537109375" y="258" fill="#000" width="38.92578125" height="23" opacity="1"></rect></mask><g transform="translate(1146.537109375 258) rotate(0 19.462890625 11.5)"><text x="19.462890625" y="0" font-family="Helvetica, Segoe UI Emoji" font-size="20px" fill="#000000" text-anchor="middle" style="white-space: pre;" direction="ltr" dominant-baseline="text-before-edge">tope</text></g></svg>