<svg version="1.1" xmlns="http://www.w3.org/2000/svg" viewBox="0 0 1243 688" width="1243" height="688">
  <!-- svg-source:excalidraw -->
  
  <defs>
    <style class="style-fonts">
      @font-face {
        font-family: "Virgil";
        src: url("https://excalidraw.com/Virgil.woff2");
      }
      @font-face {
        font-family: "Cascadia";
        src: url("https://excalidraw.com/Cascadia.woff2");
      }
    </style>
  </defs>
  <rect x="0" y="0" width="1243" height="688" fill="#ffffff"></rect><g stroke-linecap="round"><g transform="translate(75 165) rotate(0 198.5 -1.5)"><path d="M0 0 C66.17 -0.5, 330.83 -2.5, 397 -3 M0 0 C66.17 -0.5, 330.83 -2.5, 397 -3" stroke="#000000" stroke-width="1" fill="none"></path></g></g><mask></mask><g stroke-linecap="round"><g transform="translate(79.09256601118477 295.54870035089556) rotate(0 201.5 -1.5)"><path d="M0 0 C67.17 -0.5, 335.83 -2.5, 403 -3 M0 0 C67.17 -0.5, 335.83 -2.5, 403 -3" stroke="#000000" stroke-width="1" fill="none"></path></g></g><mask></mask><g stroke-linecap="round" transform="translate(378 175) rotate(0 21 52)"><path d="M10.5 0 M10.5 0 C15.56 0, 20.62 0, 31.5 0 M10.5 0 C17.14 0, 23.77 0, 31.5 0 M31.5 0 C38.5 0, 42 3.5, 42 10.5 M31.5 0 C38.5 0, 42 3.5, 42 10.5 M42 10.5 C42 42.75, 42 75, 42 93.5 M42 10.5 C42 29.29, 42 48.08, 42 93.5 M42 93.5 C42 100.5, 38.5 104, 31.5 104 M42 93.5 C42 100.5, 38.5 104, 31.5 104 M31.5 104 C24.32 104, 17.14 104, 10.5 104 M31.5 104 C26.5 104, 21.5 104, 10.5 104 M10.5 104 C3.5 104, 0 100.5, 0 93.5 M10.5 104 C3.5 104, 0 100.5, 0 93.5 M0 93.5 C0 64.68, 0 35.86, 0 10.5 M0 93.5 C0 73.81, 0 54.12, 0 10.5 M0 10.5 C0 3.5, 3.5 0, 10.5 0 M0 10.5 C0 3.5, 3.5 0, 10.5 0" stroke="#000000" stroke-width="1" fill="none"></path></g><g transform="translate(387.876953125 215.5) rotate(0 11.123046875 11.5)"><text x="11.123046875" y="0" font-family="Helvetica, Segoe UI Emoji" font-size="20px" fill="#000000" text-anchor="middle" style="white-space: pre;" direction="ltr" dominant-baseline="text-before-edge">e2</text></g><g mask="url(#mask-l8W3td5iAyPJkOaLi7tTH)" stroke-linecap="round"><g transform="translate(453 33) rotate(0 0.9388452947791848 56.81523648330008)"><path d="M0.95 -0.96 C1.29 17.94, 1.83 93.88, 1.88 113.04 M0 1.15 C0.26 20.3, 1.29 96.09, 1.4 114.59" stroke="#000000" stroke-width="1" fill="none"></path></g><g transform="translate(453 33) rotate(0 0.9388452947791848 56.81523648330008)"><path d="M-10.76 87.98 C-6.11 95.01, -1.42 102.85, 1.85 113.8 M-9.17 85.52 C-7.41 92.64, -5.05 97.27, 1.26 114.46" stroke="#000000" stroke-width="1" fill="none"></path></g><g transform="translate(453 33) rotate(0 0.9388452947791848 56.81523648330008)"><path d="M9.76 87.77 C8.43 95.02, 7.14 102.93, 1.85 113.8 M11.35 85.31 C8.86 92.44, 6.98 97.11, 1.26 114.46" stroke="#000000" stroke-width="1" fill="none"></path></g></g><mask id="mask-l8W3td5iAyPJkOaLi7tTH"><rect x="0" y="0" fill="#fff" width="554" height="246"></rect><rect x="427.9287109375" y="78" fill="#000" width="51.142578125" height="23" opacity="1"></rect></mask><g transform="translate(427.9287109375 78) rotate(0 26.010134357279185 11.815236483300083)"><text x="25.5712890625" y="0" font-family="Helvetica, Segoe UI Emoji" font-size="20px" fill="#000000" text-anchor="middle" style="white-space: pre;" direction="ltr" dominant-baseline="text-before-edge">frente</text></g><g mask="url(#mask-guX9_DLXco6LP3-ZH8cGu)" stroke-linecap="round"><g transform="translate(113 42) rotate(0 -0.5 56.5)"><path d="M0 0 C-0.17 18.83, -0.83 94.17, -1 113 M0 0 C-0.17 18.83, -0.83 94.17, -1 113" stroke="#000000" stroke-width="1" fill="none"></path></g><g transform="translate(113 42) rotate(0 -0.5 56.5)"><path d="M-11.01 84.72 C-7.91 93.48, -4.81 102.25, -1 113 M-11.01 84.72 C-8.77 91.06, -6.52 97.41, -1 113" stroke="#000000" stroke-width="1" fill="none"></path></g><g transform="translate(113 42) rotate(0 -0.5 56.5)"><path d="M9.51 84.9 C6.25 93.61, 3 102.31, -1 113 M9.51 84.9 C7.15 91.2, 4.8 97.51, -1 113" stroke="#000000" stroke-width="1" fill="none"></path></g></g><mask id="mask-guX9_DLXco6LP3-ZH8cGu"><rect x="0" y="0" fill="#fff" width="214" height="255"></rect><rect x="85.8251953125" y="87" fill="#000" width="53.349609375" height="23" opacity="1"></rect></mask><g transform="translate(85.8251953125 87) rotate(0 26.6748046875 11.5)"><text x="26.6748046875" y="0" font-family="Helvetica, Segoe UI Emoji" font-size="20px" fill="#000000" text-anchor="middle" style="white-space: pre;" direction="ltr" dominant-baseline="text-before-edge">ultimo</text></g><g stroke-linecap="round" transform="translate(323 175) rotate(0 21 52)"><path d="M10.5 0 M10.5 0 C15.52 0, 20.54 0, 31.5 0 M10.5 0 C17.28 0, 24.06 0, 31.5 0 M31.5 0 C38.5 0, 42 3.5, 42 10.5 M31.5 0 C38.5 0, 42 3.5, 42 10.5 M42 10.5 C42 35.41, 42 60.33, 42 93.5 M42 10.5 C42 36.33, 42 62.15, 42 93.5 M42 93.5 C42 100.5, 38.5 104, 31.5 104 M42 93.5 C42 100.5, 38.5 104, 31.5 104 M31.5 104 C25.17 104, 18.84 104, 10.5 104 M31.5 104 C26.34 104, 21.18 104, 10.5 104 M10.5 104 C3.5 104, 0 100.5, 0 93.5 M10.5 104 C3.5 104, 0 100.5, 0 93.5 M0 93.5 C0 62.87, 0 32.24, 0 10.5 M0 93.5 C0 61.56, 0 29.61, 0 10.5 M0 10.5 C0 3.5, 3.5 0, 10.5 0 M0 10.5 C0 3.5, 3.5 0, 10.5 0" stroke="#000000" stroke-width="1" fill="none"></path></g><g transform="translate(332.876953125 215.5) rotate(0 11.123046875 11.5)"><text x="11.123046875" y="0" font-family="Helvetica, Segoe UI Emoji" font-size="20px" fill="#000000" text-anchor="middle" style="white-space: pre;" direction="ltr" dominant-baseline="text-before-edge">e3</text></g><g transform="translate(426 374) rotate(0 48.3447265625 11.5)"><text x="0" y="0" font-family="Helvetica, Segoe UI Emoji" font-size="20px" fill="#000000" text-anchor="start" style="white-space: pre;" direction="ltr" dominant-baseline="text-before-edge">ENCOLAR</text></g><g stroke-linecap="round"><g transform="translate(526.5462830055924 524.2743501754478) rotate(0 191.90743398881511 -1.5487003508955581)"><path d="M-0.41 -0.02 C63.15 -0.42, 317.93 -2.83, 382.03 -3.08 M1.57 -1.07 C65.45 -1.31, 320.49 -1.69, 384.23 -2.11" stroke="#000000" stroke-width="1" fill="none"></path></g></g><mask></mask><g stroke-linecap="round"><g transform="translate(525.6388490167772 650.8230505263434) rotate(0 191.90743398881511 -1.5487003508955581)"><path d="M-0.41 -0.02 C63.15 -0.42, 317.93 -2.83, 382.03 -3.08 M1.57 -1.07 C65.45 -1.31, 320.49 -1.69, 384.23 -2.11" stroke="#000000" stroke-width="1" fill="none"></path></g></g><mask></mask><g stroke-linecap="round" transform="translate(864.5462830055924 531.2743501754478) rotate(0 21 52)"><path d="M10.5 0 M10.5 0 C14.47 -0.77, 23.58 -1.82, 31.5 0 M10.5 0 C15.97 -0.71, 20.21 -0.79, 31.5 0 M31.5 0 C37.63 -0.38, 40.76 3.13, 42 10.5 M31.5 0 C38.71 -1, 41.73 1.79, 42 10.5 M42 10.5 C42.91 42.44, 43.85 72.94, 42 93.5 M42 10.5 C40.49 41.2, 40.49 71.5, 42 93.5 M42 93.5 C43.68 99.66, 39.88 103.2, 31.5 104 M42 93.5 C43.78 100.71, 37.84 103.54, 31.5 104 M31.5 104 C24.56 105.92, 17.98 102.91, 10.5 104 M31.5 104 C23.87 104.48, 15.48 103.08, 10.5 104 M10.5 104 C1.66 103.65, 0 100.82, 0 93.5 M10.5 104 C4.29 104.37, -0.52 100.55, 0 93.5 M0 93.5 C-0.69 64.75, 0.65 37.78, 0 10.5 M0 93.5 C0.11 67.65, -1.42 39.04, 0 10.5 M0 10.5 C-0.48 2.05, 5.23 0.49, 10.5 0 M0 10.5 C-0.05 2.42, 2.09 1.52, 10.5 0" stroke="#000000" stroke-width="1" fill="none"></path></g><g transform="translate(874.4232361305924 571.7743501754478) rotate(0 11.123046875 11.5)"><text x="11.123046875" y="0" font-family="Helvetica, Segoe UI Emoji" font-size="20px" fill="#000000" text-anchor="middle" style="white-space: pre;" direction="ltr" dominant-baseline="text-before-edge">e1</text></g><g stroke-linecap="round" transform="translate(797.5462830055924 530.2743501754478) rotate(0 21 52)"><path d="M10.5 0 M10.5 0 C14.47 -0.77, 23.58 -1.82, 31.5 0 M10.5 0 C15.97 -0.71, 20.21 -0.79, 31.5 0 M31.5 0 C37.63 -0.38, 40.76 3.13, 42 10.5 M31.5 0 C38.71 -1, 41.73 1.79, 42 10.5 M42 10.5 C42.91 42.44, 43.85 72.94, 42 93.5 M42 10.5 C40.49 41.2, 40.49 71.5, 42 93.5 M42 93.5 C43.68 99.66, 39.88 103.2, 31.5 104 M42 93.5 C43.78 100.71, 37.84 103.54, 31.5 104 M31.5 104 C24.56 105.92, 17.98 102.91, 10.5 104 M31.5 104 C23.87 104.48, 15.48 103.08, 10.5 104 M10.5 104 C1.66 103.65, 0 100.82, 0 93.5 M10.5 104 C4.29 104.37, -0.52 100.55, 0 93.5 M0 93.5 C-0.69 64.75, 0.65 37.78, 0 10.5 M0 93.5 C0.11 67.65, -1.42 39.04, 0 10.5 M0 10.5 C-0.48 2.05, 5.23 0.49, 10.5 0 M0 10.5 C-0.05 2.42, 2.09 1.52, 10.5 0" stroke="#000000" stroke-width="1" fill="none"></path></g><g transform="translate(807.4232361305924 570.7743501754478) rotate(0 11.123046875 11.5)"><text x="11.123046875" y="0" font-family="Helvetica, Segoe UI Emoji" font-size="20px" fill="#000000" text-anchor="middle" style="white-space: pre;" direction="ltr" dominant-baseline="text-before-edge">e2</text></g><g stroke-linecap="round" transform="translate(385 515) rotate(0 21 52)"><path d="M10.5 0 M10.5 0 C14.47 -0.77, 23.58 -1.82, 31.5 0 M10.5 0 C15.97 -0.71, 20.21 -0.79, 31.5 0 M31.5 0 C37.63 -0.38, 40.76 3.13, 42 10.5 M31.5 0 C38.71 -1, 41.73 1.79, 42 10.5 M42 10.5 C42.91 42.44, 43.85 72.94, 42 93.5 M42 10.5 C40.49 41.2, 40.49 71.5, 42 93.5 M42 93.5 C43.68 99.66, 39.88 103.2, 31.5 104 M42 93.5 C43.78 100.71, 37.84 103.54, 31.5 104 M31.5 104 C24.56 105.92, 17.98 102.91, 10.5 104 M31.5 104 C23.87 104.48, 15.48 103.08, 10.5 104 M10.5 104 C1.66 103.65, 0 100.82, 0 93.5 M10.5 104 C4.29 104.37, -0.52 100.55, 0 93.5 M0 93.5 C-0.69 64.75, 0.65 37.78, 0 10.5 M0 93.5 C0.11 67.65, -1.42 39.04, 0 10.5 M0 10.5 C-0.48 2.05, 5.23 0.49, 10.5 0 M0 10.5 C-0.05 2.42, 2.09 1.52, 10.5 0" stroke="#000000" stroke-width="1" fill="none"></path></g><g transform="translate(394.876953125 555.5) rotate(0 11.123046875 11.5)"><text x="11.123046875" y="0" font-family="Helvetica, Segoe UI Emoji" font-size="20px" fill="#000000" text-anchor="middle" style="white-space: pre;" direction="ltr" dominant-baseline="text-before-edge">e3</text></g><g transform="translate(460 577) rotate(0 53 12)" stroke="none"><path fill="#000000" d="M 0.50,-2.51 Q 0.50,-2.51 1.93,-2.21 3.37,-1.91 5.43,-1.47 7.49,-1.02 8.46,-0.50 9.42,0.01 10.98,0.49 12.55,0.97 13.65,1.38 14.74,1.80 15.92,2.24 17.10,2.68 18.29,3.19 19.48,3.70 20.73,4.19 21.98,4.68 23.37,5.20 24.75,5.72 26.00,5.91 27.25,6.10 28.86,6.90 30.46,7.71 33.00,8.32 35.55,8.93 36.83,9.08 38.11,9.23 39.53,9.62 40.95,10.01 42.10,10.12 43.25,10.23 44.85,10.62 46.45,11.02 48.47,11.49 50.49,11.96 52.38,12.07 54.28,12.19 55.51,12.55 56.74,12.92 58.23,12.98 59.73,13.04 61.24,13.03 62.74,13.01 64.93,13.39 67.11,13.76 68.58,13.82 70.05,13.88 71.14,13.86 72.24,13.85 73.94,13.84 75.64,13.84 76.89,13.81 78.15,13.78 77.62,14.85 77.09,15.91 76.56,14.83 76.03,13.74 75.50,12.75 74.97,11.75 74.04,10.00 73.12,8.25 72.90,6.25 72.68,4.25 74.77,2.98 76.86,1.70 78.21,2.07 79.56,2.44 81.30,3.48 83.04,4.52 84.38,4.99 85.72,5.46 86.97,5.90 88.23,6.34 89.31,6.92 90.40,7.50 91.64,8.08 92.87,8.66 94.55,9.09 96.23,9.52 97.88,10.06 99.53,10.60 100.54,11.07 101.55,11.54 102.61,12.07 103.68,12.59 104.91,13.49 106.13,14.39 107.39,15.11 108.64,15.83 108.53,17.79 108.42,19.75 107.83,20.67 107.24,21.59 105.58,22.00 103.91,22.41 102.24,22.81 100.57,23.20 99.49,23.28 98.42,23.37 96.59,23.36 94.77,23.36 93.67,23.75 92.57,24.14 91.51,24.22 90.44,24.29 88.20,25.17 85.95,26.04 84.43,26.67 82.91,27.29 82.36,27.35 81.81,27.41 81.27,27.29 80.73,27.17 80.26,26.89 79.78,26.60 79.42,26.18 79.06,25.76 78.86,25.25 78.65,24.73 78.62,24.18 78.59,23.63 78.74,23.09 78.89,22.56 79.20,22.10 79.51,21.64 79.95,21.31 80.39,20.97 80.92,20.80 81.44,20.62 81.99,20.62 82.55,20.62 83.07,20.80 83.60,20.97 84.04,21.31 84.48,21.64 84.79,22.10 85.10,22.56 85.25,23.09 85.40,23.62 85.37,24.18 85.34,24.73 85.13,25.24 84.93,25.76 84.57,26.18 84.21,26.60 83.74,26.89 83.26,27.17 82.72,27.29 82.18,27.41 81.63,27.35 81.08,27.29 80.58,27.06 80.08,26.83 79.67,26.45 79.27,26.07 79.01,25.58 78.75,25.09 78.66,24.54 78.57,24.00 78.66,23.45 78.75,22.90 79.01,22.41 79.27,21.92 79.67,21.54 80.08,21.16 80.58,20.93 81.08,20.70 81.08,20.70 81.08,20.70 83.65,19.63 86.22,18.55 87.45,18.08 88.68,17.61 90.31,17.50 91.94,17.40 93.25,17.00 94.56,16.60 95.68,16.55 96.80,16.50 98.12,16.46 99.43,16.43 101.38,16.71 103.33,17.00 103.28,18.46 103.23,19.91 101.62,18.91 100.02,17.90 98.05,16.93 96.09,15.96 94.48,15.46 92.87,14.96 90.98,14.39 89.08,13.83 87.67,13.18 86.25,12.54 84.13,11.95 82.02,11.36 80.15,10.43 78.28,9.51 78.03,8.26 77.77,7.01 77.87,5.56 77.96,4.11 79.13,5.92 80.30,7.73 81.00,9.34 81.70,10.95 82.59,12.54 83.48,14.14 83.50,15.71 83.52,17.28 81.36,18.76 79.21,20.24 78.10,20.21 76.99,20.18 75.39,20.16 73.78,20.14 72.38,20.10 70.97,20.05 69.47,19.93 67.97,19.81 66.40,19.59 64.84,19.37 63.75,19.16 62.67,18.95 61.03,18.86 59.39,18.78 58.31,18.69 57.22,18.60 55.57,18.11 53.93,17.62 52.53,17.55 51.13,17.47 49.90,17.23 48.67,16.99 46.96,16.46 45.26,15.93 43.97,15.62 42.68,15.31 40.09,14.78 37.51,14.25 35.84,14.05 34.17,13.85 32.81,13.49 31.44,13.13 28.92,12.20 26.39,11.27 24.70,11.03 23.01,10.80 21.54,10.33 20.07,9.86 18.66,9.37 17.24,8.88 16.22,8.44 15.20,7.99 13.88,7.54 12.57,7.09 10.91,6.47 9.25,5.85 7.46,4.94 5.67,4.02 4.02,3.54 2.37,3.06 0.93,2.79 -0.50,2.51 -0.79,2.41 -1.09,2.32 -1.35,2.15 -1.61,1.99 -1.83,1.77 -2.04,1.54 -2.20,1.28 -2.35,1.01 -2.44,0.71 -2.53,0.42 -2.54,0.11 -2.55,-0.19 -2.49,-0.49 -2.43,-0.80 -2.30,-1.08 -2.17,-1.36 -1.97,-1.60 -1.78,-1.84 -1.53,-2.03 -1.29,-2.21 -1.00,-2.33 -0.72,-2.46 -0.41,-2.51 -0.11,-2.56 0.19,-2.54 0.50,-2.51 0.50,-2.51 L 0.50,-2.51 Z"></path></g><g mask="url(#mask-cLbOZSmGrpyFNFnw89JR2)" stroke-linecap="round"><g transform="translate(408 417) rotate(0 0.5 44)"><path d="M0 0 C0.17 14.67, 0.83 73.33, 1 88 M0 0 C0.17 14.67, 0.83 73.33, 1 88" stroke="#000000" stroke-width="1" fill="none"></path></g><g transform="translate(408 417) rotate(0 0.5 44)"><path d="M-9.58 59.93 C-6.47 68.18, -3.36 76.42, 1 88 M-9.58 59.93 C-5.4 71.01, -1.22 82.1, 1 88" stroke="#000000" stroke-width="1" fill="none"></path></g><g transform="translate(408 417) rotate(0 0.5 44)"><path d="M10.94 59.69 C8.02 68.01, 5.1 76.33, 1 88 M10.94 59.69 C7.01 70.87, 3.09 82.05, 1 88" stroke="#000000" stroke-width="1" fill="none"></path></g></g><mask id="mask-cLbOZSmGrpyFNFnw89JR2"><rect x="0" y="0" fill="#fff" width="509" height="605"></rect><rect x="381.8251953125" y="449.5" fill="#000" width="53.349609375" height="23" opacity="1"></rect></mask><g transform="translate(381.8251953125 449.5) rotate(0 26.6748046875 11.5)"><text x="26.6748046875" y="0" font-family="Helvetica, Segoe UI Emoji" font-size="20px" fill="#000000" text-anchor="middle" style="white-space: pre;" direction="ltr" dominant-baseline="text-before-edge">ultimo</text></g><g mask="url(#mask-qDKBOhY9j7JzL1epwPt0m)" stroke-linecap="round"><g transform="translate(884.5 423.18476351669983) rotate(0 0.9388452947791848 46.81523648330011)"><path d="M0.95 -0.96 C1.29 14.61, 1.83 77.21, 1.88 93.04 M0 1.15 C0.26 16.96, 1.29 79.42, 1.4 94.59" stroke="#000000" stroke-width="1" fill="none"></path></g><g transform="translate(884.5 423.18476351669983) rotate(0 0.9388452947791848 46.81523648330011)"><path d="M-10.82 68 C-6.16 75.02, -1.45 82.86, 1.85 93.8 M-9.23 65.54 C-7.46 72.66, -5.09 77.28, 1.26 94.46" stroke="#000000" stroke-width="1" fill="none"></path></g><g transform="translate(884.5 423.18476351669983) rotate(0 0.9388452947791848 46.81523648330011)"><path d="M9.7 67.75 C8.38 75, 7.12 82.92, 1.85 93.8 M11.29 65.29 C8.81 72.42, 6.95 77.1, 1.26 94.46" stroke="#000000" stroke-width="1" fill="none"></path></g></g><mask id="mask-qDKBOhY9j7JzL1epwPt0m"><rect x="0" y="0" fill="#fff" width="985.5" height="616.1847635166998"></rect><rect x="859.4287109375" y="458.18476351669983" fill="#000" width="51.142578125" height="23" opacity="1"></rect></mask><g transform="translate(859.4287109375 458.18476351669983) rotate(0 26.010134357279185 11.815236483300112)"><text x="25.5712890625" y="0" font-family="Helvetica, Segoe UI Emoji" font-size="20px" fill="#000000" text-anchor="middle" style="white-space: pre;" direction="ltr" dominant-baseline="text-before-edge">frente</text></g><g stroke-linecap="round" transform="translate(212 175) rotate(0 21 52)"><path d="M10.5 0 M10.5 0 C15.76 0, 21.01 0, 31.5 0 M10.5 0 C18.43 0, 26.36 0, 31.5 0 M31.5 0 C38.5 0, 42 3.5, 42 10.5 M31.5 0 C38.5 0, 42 3.5, 42 10.5 M42 10.5 C42 32.35, 42 54.2, 42 93.5 M42 10.5 C42 34.38, 42 58.27, 42 93.5 M42 93.5 C42 100.5, 38.5 104, 31.5 104 M42 93.5 C42 100.5, 38.5 104, 31.5 104 M31.5 104 C24.1 104, 16.71 104, 10.5 104 M31.5 104 C24.3 104, 17.11 104, 10.5 104 M10.5 104 C3.5 104, 0 100.5, 0 93.5 M10.5 104 C3.5 104, 0 100.5, 0 93.5 M0 93.5 C0 62.29, 0 31.08, 0 10.5 M0 93.5 C0 71.13, 0 48.76, 0 10.5 M0 10.5 C0 3.5, 3.5 0, 10.5 0 M0 10.5 C0 3.5, 3.5 0, 10.5 0" stroke="#000000" stroke-width="1" fill="none"></path></g><g transform="translate(221.876953125 215.5) rotate(0 11.123046875 11.5)"><text x="11.123046875" y="0" font-family="Helvetica, Segoe UI Emoji" font-size="20px" fill="#000000" text-anchor="middle" style="white-space: pre;" direction="ltr" dominant-baseline="text-before-edge">e5</text></g><g stroke-linecap="round" transform="translate(153 177) rotate(0 21 52)"><path d="M10.5 0 M10.5 0 C15.62 0, 20.75 0, 31.5 0 M10.5 0 C18.67 0, 26.84 0, 31.5 0 M31.5 0 C38.5 0, 42 3.5, 42 10.5 M31.5 0 C38.5 0, 42 3.5, 42 10.5 M42 10.5 C42 38.59, 42 66.69, 42 93.5 M42 10.5 C42 30.25, 42 50, 42 93.5 M42 93.5 C42 100.5, 38.5 104, 31.5 104 M42 93.5 C42 100.5, 38.5 104, 31.5 104 M31.5 104 C27.19 104, 22.87 104, 10.5 104 M31.5 104 C25.74 104, 19.99 104, 10.5 104 M10.5 104 C3.5 104, 0 100.5, 0 93.5 M10.5 104 C3.5 104, 0 100.5, 0 93.5 M0 93.5 C0 61.17, 0 28.84, 0 10.5 M0 93.5 C0 69.4, 0 45.31, 0 10.5 M0 10.5 C0 3.5, 3.5 0, 10.5 0 M0 10.5 C0 3.5, 3.5 0, 10.5 0" stroke="#000000" stroke-width="1" fill="none"></path></g><g transform="translate(162.876953125 217.5) rotate(0 11.123046875 11.5)"><text x="11.123046875" y="0" font-family="Helvetica, Segoe UI Emoji" font-size="20px" fill="#000000" text-anchor="middle" style="white-space: pre;" direction="ltr" dominant-baseline="text-before-edge">e7</text></g><g stroke-linecap="round" transform="translate(92 177) rotate(0 21 52)"><path d="M10.5 0 M10.5 0 C17.34 0, 24.19 0, 31.5 0 M10.5 0 C17.26 0, 24.03 0, 31.5 0 M31.5 0 C38.5 0, 42 3.5, 42 10.5 M31.5 0 C38.5 0, 42 3.5, 42 10.5 M42 10.5 C42 27.19, 42 43.88, 42 93.5 M42 10.5 C42 41.3, 42 72.11, 42 93.5 M42 93.5 C42 100.5, 38.5 104, 31.5 104 M42 93.5 C42 100.5, 38.5 104, 31.5 104 M31.5 104 C23.83 104, 16.16 104, 10.5 104 M31.5 104 C25.52 104, 19.55 104, 10.5 104 M10.5 104 C3.5 104, 0 100.5, 0 93.5 M10.5 104 C3.5 104, 0 100.5, 0 93.5 M0 93.5 C0 68.45, 0 43.41, 0 10.5 M0 93.5 C0 75.43, 0 57.36, 0 10.5 M0 10.5 C0 3.5, 3.5 0, 10.5 0 M0 10.5 C0 3.5, 3.5 0, 10.5 0" stroke="#000000" stroke-width="1" fill="none"></path></g><g transform="translate(101.876953125 217.5) rotate(0 11.123046875 11.5)"><text x="11.123046875" y="0" font-family="Helvetica, Segoe UI Emoji" font-size="20px" fill="#000000" text-anchor="middle" style="white-space: pre;" direction="ltr" dominant-baseline="text-before-edge">e8</text></g><g stroke-linecap="round" transform="translate(267 178) rotate(0 21 52)"><path d="M10.5 0 M10.5 0 C18.33 0, 26.15 0, 31.5 0 M10.5 0 C14.97 0, 19.44 0, 31.5 0 M31.5 0 C38.5 0, 42 3.5, 42 10.5 M31.5 0 C38.5 0, 42 3.5, 42 10.5 M42 10.5 C42 33.34, 42 56.18, 42 93.5 M42 10.5 C42 38.71, 42 66.93, 42 93.5 M42 93.5 C42 100.5, 38.5 104, 31.5 104 M42 93.5 C42 100.5, 38.5 104, 31.5 104 M31.5 104 C23.89 104, 16.28 104, 10.5 104 M31.5 104 C24.49 104, 17.48 104, 10.5 104 M10.5 104 C3.5 104, 0 100.5, 0 93.5 M10.5 104 C3.5 104, 0 100.5, 0 93.5 M0 93.5 C0 76.06, 0 58.61, 0 10.5 M0 93.5 C0 67.82, 0 42.15, 0 10.5 M0 10.5 C0 3.5, 3.5 0, 10.5 0 M0 10.5 C0 3.5, 3.5 0, 10.5 0" stroke="#000000" stroke-width="1" fill="none"></path></g><g transform="translate(276.876953125 218.5) rotate(0 11.123046875 11.5)"><text x="11.123046875" y="0" font-family="Helvetica, Segoe UI Emoji" font-size="20px" fill="#000000" text-anchor="middle" style="white-space: pre;" direction="ltr" dominant-baseline="text-before-edge">e4</text></g><g stroke-linecap="round" transform="translate(431 175) rotate(0 21 52)"><path d="M10.5 0 M10.5 0 C18.19 0, 25.88 0, 31.5 0 M10.5 0 C16.47 0, 22.45 0, 31.5 0 M31.5 0 C38.5 0, 42 3.5, 42 10.5 M31.5 0 C38.5 0, 42 3.5, 42 10.5 M42 10.5 C42 41.07, 42 71.63, 42 93.5 M42 10.5 C42 31.74, 42 52.98, 42 93.5 M42 93.5 C42 100.5, 38.5 104, 31.5 104 M42 93.5 C42 100.5, 38.5 104, 31.5 104 M31.5 104 C25.41 104, 19.33 104, 10.5 104 M31.5 104 C27.04 104, 22.58 104, 10.5 104 M10.5 104 C3.5 104, 0 100.5, 0 93.5 M10.5 104 C3.5 104, 0 100.5, 0 93.5 M0 93.5 C0 72.61, 0 51.72, 0 10.5 M0 93.5 C0 66.5, 0 39.49, 0 10.5 M0 10.5 C0 3.5, 3.5 0, 10.5 0 M0 10.5 C0 3.5, 3.5 0, 10.5 0" stroke="#000000" stroke-width="1" fill="none"></path></g><g transform="translate(440.876953125 215.5) rotate(0 11.123046875 11.5)"><text x="11.123046875" y="0" font-family="Helvetica, Segoe UI Emoji" font-size="20px" fill="#000000" text-anchor="middle" style="white-space: pre;" direction="ltr" dominant-baseline="text-before-edge">e1</text></g><g stroke-linecap="round" transform="translate(10 10) rotate(0 269 157)"><path d="M32 0 M32 0 C203.8 0, 375.6 0, 506 0 M32 0 C140.23 0, 248.46 0, 506 0 M506 0 C527.33 0, 538 10.67, 538 32 M506 0 C527.33 0, 538 10.67, 538 32 M538 32 C538 110.82, 538 189.64, 538 282 M538 32 C538 122.34, 538 212.68, 538 282 M538 282 C538 303.33, 527.33 314, 506 314 M538 282 C538 303.33, 527.33 314, 506 314 M506 314 C328.38 314, 150.75 314, 32 314 M506 314 C399.24 314, 292.48 314, 32 314 M32 314 C10.67 314, 0 303.33, 0 282 M32 314 C10.67 314, 0 303.33, 0 282 M0 282 C0 185.2, 0 88.4, 0 32 M0 282 C0 202.86, 0 123.71, 0 32 M0 32 C0 10.67, 10.67 0, 32 0 M0 32 C0 10.67, 10.67 0, 32 0" stroke="#000000" stroke-width="1" fill="none"></path></g><g transform="translate(39 20) rotate(0 27.2314453125 11.5)"><text x="0" y="0" font-family="Helvetica, Segoe UI Emoji" font-size="20px" fill="#000000" text-anchor="start" style="white-space: pre;" direction="ltr" dominant-baseline="text-before-edge">COLA</text></g><g stroke-linecap="round" transform="translate(356 357) rotate(0 291 160.5)"><path d="M32 0 M32 0 C233.78 0, 435.56 0, 550 0 M32 0 C139.06 0, 246.12 0, 550 0 M550 0 C571.33 0, 582 10.67, 582 32 M550 0 C571.33 0, 582 10.67, 582 32 M582 32 C582 85.94, 582 139.88, 582 289 M582 32 C582 111.32, 582 190.63, 582 289 M582 289 C582 310.33, 571.33 321, 550 321 M582 289 C582 310.33, 571.33 321, 550 321 M550 321 C391.84 321, 233.68 321, 32 321 M550 321 C377.91 321, 205.82 321, 32 321 M32 321 C10.67 321, 0 310.33, 0 289 M32 321 C10.67 321, 0 310.33, 0 289 M0 289 C0 191.47, 0 93.95, 0 32 M0 289 C0 198.73, 0 108.45, 0 32 M0 32 C0 10.67, 10.67 0, 32 0 M0 32 C0 10.67, 10.67 0, 32 0" stroke="#000000" stroke-width="1" fill="none"></path></g><g transform="translate(625 37) rotate(0 68.90625 11.5)"><text x="0" y="0" font-family="Helvetica, Segoe UI Emoji" font-size="20px" fill="#000000" text-anchor="start" style="white-space: pre;" direction="ltr" dominant-baseline="text-before-edge">DESENCOLAR</text></g><g stroke-linecap="round"><g transform="translate(634.4537169944076 155.75) rotate(0 198.5 -1.5)"><path d="M0 0 C66.17 -0.5, 330.83 -2.5, 397 -3 M0 0 C66.17 -0.5, 330.83 -2.5, 397 -3" stroke="#000000" stroke-width="1" fill="none"></path></g></g><mask></mask><g stroke-linecap="round"><g transform="translate(638.5462830055924 286.2987003508956) rotate(0 201.5 -1.5)"><path d="M0 0 C67.17 -0.5, 335.83 -2.5, 403 -3 M0 0 C67.17 -0.5, 335.83 -2.5, 403 -3" stroke="#000000" stroke-width="1" fill="none"></path></g></g><mask></mask><g stroke-linecap="round" transform="translate(937.4537169944078 165.75) rotate(0 21 52)"><path d="M10.5 0 M10.5 0 C15.56 0, 20.62 0, 31.5 0 M10.5 0 C17.14 0, 23.77 0, 31.5 0 M31.5 0 C38.5 0, 42 3.5, 42 10.5 M31.5 0 C38.5 0, 42 3.5, 42 10.5 M42 10.5 C42 42.75, 42 75, 42 93.5 M42 10.5 C42 29.29, 42 48.08, 42 93.5 M42 93.5 C42 100.5, 38.5 104, 31.5 104 M42 93.5 C42 100.5, 38.5 104, 31.5 104 M31.5 104 C24.32 104, 17.14 104, 10.5 104 M31.5 104 C26.5 104, 21.5 104, 10.5 104 M10.5 104 C3.5 104, 0 100.5, 0 93.5 M10.5 104 C3.5 104, 0 100.5, 0 93.5 M0 93.5 C0 64.68, 0 35.86, 0 10.5 M0 93.5 C0 73.81, 0 54.12, 0 10.5 M0 10.5 C0 3.5, 3.5 0, 10.5 0 M0 10.5 C0 3.5, 3.5 0, 10.5 0" stroke="#000000" stroke-width="1" fill="none"></path></g><g transform="translate(947.3306701194078 206.25) rotate(0 11.123046875 11.5)"><text x="11.123046875" y="0" font-family="Helvetica, Segoe UI Emoji" font-size="20px" fill="#000000" text-anchor="middle" style="white-space: pre;" direction="ltr" dominant-baseline="text-before-edge">e2</text></g><g stroke-linecap="round" transform="translate(882.4537169944078 165.75) rotate(0 21 52)"><path d="M10.5 0 M10.5 0 C15.52 0, 20.54 0, 31.5 0 M10.5 0 C17.28 0, 24.06 0, 31.5 0 M31.5 0 C38.5 0, 42 3.5, 42 10.5 M31.5 0 C38.5 0, 42 3.5, 42 10.5 M42 10.5 C42 35.41, 42 60.33, 42 93.5 M42 10.5 C42 36.33, 42 62.15, 42 93.5 M42 93.5 C42 100.5, 38.5 104, 31.5 104 M42 93.5 C42 100.5, 38.5 104, 31.5 104 M31.5 104 C25.17 104, 18.84 104, 10.5 104 M31.5 104 C26.34 104, 21.18 104, 10.5 104 M10.5 104 C3.5 104, 0 100.5, 0 93.5 M10.5 104 C3.5 104, 0 100.5, 0 93.5 M0 93.5 C0 62.87, 0 32.24, 0 10.5 M0 93.5 C0 61.56, 0 29.61, 0 10.5 M0 10.5 C0 3.5, 3.5 0, 10.5 0 M0 10.5 C0 3.5, 3.5 0, 10.5 0" stroke="#000000" stroke-width="1" fill="none"></path></g><g transform="translate(892.3306701194078 206.25) rotate(0 11.123046875 11.5)"><text x="11.123046875" y="0" font-family="Helvetica, Segoe UI Emoji" font-size="20px" fill="#000000" text-anchor="middle" style="white-space: pre;" direction="ltr" dominant-baseline="text-before-edge">e3</text></g><g stroke-linecap="round" transform="translate(771.4537169944078 165.75) rotate(0 21 52)"><path d="M10.5 0 M10.5 0 C15.76 0, 21.01 0, 31.5 0 M10.5 0 C18.43 0, 26.36 0, 31.5 0 M31.5 0 C38.5 0, 42 3.5, 42 10.5 M31.5 0 C38.5 0, 42 3.5, 42 10.5 M42 10.5 C42 32.35, 42 54.2, 42 93.5 M42 10.5 C42 34.38, 42 58.27, 42 93.5 M42 93.5 C42 100.5, 38.5 104, 31.5 104 M42 93.5 C42 100.5, 38.5 104, 31.5 104 M31.5 104 C24.1 104, 16.71 104, 10.5 104 M31.5 104 C24.3 104, 17.11 104, 10.5 104 M10.5 104 C3.5 104, 0 100.5, 0 93.5 M10.5 104 C3.5 104, 0 100.5, 0 93.5 M0 93.5 C0 62.29, 0 31.08, 0 10.5 M0 93.5 C0 71.13, 0 48.76, 0 10.5 M0 10.5 C0 3.5, 3.5 0, 10.5 0 M0 10.5 C0 3.5, 3.5 0, 10.5 0" stroke="#000000" stroke-width="1" fill="none"></path></g><g transform="translate(781.3306701194078 206.25) rotate(0 11.123046875 11.5)"><text x="11.123046875" y="0" font-family="Helvetica, Segoe UI Emoji" font-size="20px" fill="#000000" text-anchor="middle" style="white-space: pre;" direction="ltr" dominant-baseline="text-before-edge">e5</text></g><g stroke-linecap="round" transform="translate(712.4537169944078 167.75) rotate(0 21 52)"><path d="M10.5 0 M10.5 0 C15.62 0, 20.75 0, 31.5 0 M10.5 0 C18.67 0, 26.84 0, 31.5 0 M31.5 0 C38.5 0, 42 3.5, 42 10.5 M31.5 0 C38.5 0, 42 3.5, 42 10.5 M42 10.5 C42 38.59, 42 66.69, 42 93.5 M42 10.5 C42 30.25, 42 50, 42 93.5 M42 93.5 C42 100.5, 38.5 104, 31.5 104 M42 93.5 C42 100.5, 38.5 104, 31.5 104 M31.5 104 C27.19 104, 22.87 104, 10.5 104 M31.5 104 C25.74 104, 19.99 104, 10.5 104 M10.5 104 C3.5 104, 0 100.5, 0 93.5 M10.5 104 C3.5 104, 0 100.5, 0 93.5 M0 93.5 C0 61.17, 0 28.84, 0 10.5 M0 93.5 C0 69.4, 0 45.31, 0 10.5 M0 10.5 C0 3.5, 3.5 0, 10.5 0 M0 10.5 C0 3.5, 3.5 0, 10.5 0" stroke="#000000" stroke-width="1" fill="none"></path></g><g transform="translate(722.3306701194078 208.25) rotate(0 11.123046875 11.5)"><text x="11.123046875" y="0" font-family="Helvetica, Segoe UI Emoji" font-size="20px" fill="#000000" text-anchor="middle" style="white-space: pre;" direction="ltr" dominant-baseline="text-before-edge">e7</text></g><g stroke-linecap="round" transform="translate(651.4537169944076 167.75) rotate(0 21 52)"><path d="M10.5 0 M10.5 0 C17.34 0, 24.19 0, 31.5 0 M10.5 0 C17.26 0, 24.03 0, 31.5 0 M31.5 0 C38.5 0, 42 3.5, 42 10.5 M31.5 0 C38.5 0, 42 3.5, 42 10.5 M42 10.5 C42 27.19, 42 43.88, 42 93.5 M42 10.5 C42 41.3, 42 72.11, 42 93.5 M42 93.5 C42 100.5, 38.5 104, 31.5 104 M42 93.5 C42 100.5, 38.5 104, 31.5 104 M31.5 104 C23.83 104, 16.16 104, 10.5 104 M31.5 104 C25.52 104, 19.55 104, 10.5 104 M10.5 104 C3.5 104, 0 100.5, 0 93.5 M10.5 104 C3.5 104, 0 100.5, 0 93.5 M0 93.5 C0 68.45, 0 43.41, 0 10.5 M0 93.5 C0 75.43, 0 57.36, 0 10.5 M0 10.5 C0 3.5, 3.5 0, 10.5 0 M0 10.5 C0 3.5, 3.5 0, 10.5 0" stroke="#000000" stroke-width="1" fill="none"></path></g><g transform="translate(661.3306701194076 208.25) rotate(0 11.123046875 11.5)"><text x="11.123046875" y="0" font-family="Helvetica, Segoe UI Emoji" font-size="20px" fill="#000000" text-anchor="middle" style="white-space: pre;" direction="ltr" dominant-baseline="text-before-edge">e8</text></g><g stroke-linecap="round" transform="translate(826.4537169944078 168.75) rotate(0 21 52)"><path d="M10.5 0 M10.5 0 C18.33 0, 26.15 0, 31.5 0 M10.5 0 C14.97 0, 19.44 0, 31.5 0 M31.5 0 C38.5 0, 42 3.5, 42 10.5 M31.5 0 C38.5 0, 42 3.5, 42 10.5 M42 10.5 C42 33.34, 42 56.18, 42 93.5 M42 10.5 C42 38.71, 42 66.93, 42 93.5 M42 93.5 C42 100.5, 38.5 104, 31.5 104 M42 93.5 C42 100.5, 38.5 104, 31.5 104 M31.5 104 C23.89 104, 16.28 104, 10.5 104 M31.5 104 C24.49 104, 17.48 104, 10.5 104 M10.5 104 C3.5 104, 0 100.5, 0 93.5 M10.5 104 C3.5 104, 0 100.5, 0 93.5 M0 93.5 C0 76.06, 0 58.61, 0 10.5 M0 93.5 C0 67.82, 0 42.15, 0 10.5 M0 10.5 C0 3.5, 3.5 0, 10.5 0 M0 10.5 C0 3.5, 3.5 0, 10.5 0" stroke="#000000" stroke-width="1" fill="none"></path></g><g transform="translate(836.3306701194078 209.25) rotate(0 11.123046875 11.5)"><text x="11.123046875" y="0" font-family="Helvetica, Segoe UI Emoji" font-size="20px" fill="#000000" text-anchor="middle" style="white-space: pre;" direction="ltr" dominant-baseline="text-before-edge">e4</text></g><g stroke-linecap="round" transform="translate(1148.4537169944078 166.75) rotate(0 21 52)"><path d="M10.5 0 M10.5 0 C18.19 0, 25.88 0, 31.5 0 M10.5 0 C16.47 0, 22.45 0, 31.5 0 M31.5 0 C38.5 0, 42 3.5, 42 10.5 M31.5 0 C38.5 0, 42 3.5, 42 10.5 M42 10.5 C42 41.07, 42 71.63, 42 93.5 M42 10.5 C42 31.74, 42 52.98, 42 93.5 M42 93.5 C42 100.5, 38.5 104, 31.5 104 M42 93.5 C42 100.5, 38.5 104, 31.5 104 M31.5 104 C25.41 104, 19.33 104, 10.5 104 M31.5 104 C27.04 104, 22.58 104, 10.5 104 M10.5 104 C3.5 104, 0 100.5, 0 93.5 M10.5 104 C3.5 104, 0 100.5, 0 93.5 M0 93.5 C0 72.61, 0 51.72, 0 10.5 M0 93.5 C0 66.5, 0 39.49, 0 10.5 M0 10.5 C0 3.5, 3.5 0, 10.5 0 M0 10.5 C0 3.5, 3.5 0, 10.5 0" stroke="#000000" stroke-width="1" fill="none"></path></g><g transform="translate(1158.3306701194078 207.25) rotate(0 11.123046875 11.5)"><text x="11.123046875" y="0" font-family="Helvetica, Segoe UI Emoji" font-size="20px" fill="#000000" text-anchor="middle" style="white-space: pre;" direction="ltr" dominant-baseline="text-before-edge">e1</text></g><g transform="translate(1018 222) rotate(0 47 3)" stroke="none"><path fill="#000000" d="M 0.63,-2.53 Q 0.63,-2.53 1.79,-2.25 2.95,-1.98 4.03,-1.50 5.10,-1.01 6.98,-0.59 8.85,-0.18 10.70,0.26 12.55,0.70 14.53,0.84 16.51,0.99 17.80,1.04 19.08,1.09 20.77,1.46 22.45,1.82 24.02,2.01 25.58,2.21 27.14,2.30 28.70,2.39 30.22,2.44 31.75,2.48 33.25,2.51 34.76,2.53 36.27,2.54 37.77,2.56 39.27,2.56 40.78,2.57 41.99,2.54 43.20,2.51 44.87,2.55 46.53,2.59 47.82,2.57 49.10,2.54 50.51,2.54 51.91,2.53 53.09,2.50 54.26,2.47 55.62,2.47 56.98,2.46 58.14,2.43 59.30,2.41 61.15,2.76 63.00,3.12 64.83,3.20 66.66,3.28 68.32,3.24 69.98,3.20 69.38,2.08 68.79,0.96 68.35,-0.34 67.91,-1.66 67.24,-2.81 66.57,-3.97 65.84,-5.17 65.10,-6.37 64.57,-7.30 64.04,-8.22 62.75,-9.55 61.47,-10.89 60.38,-11.96 59.30,-13.03 58.27,-13.93 57.25,-14.83 56.98,-15.11 56.71,-15.39 56.52,-15.73 56.33,-16.07 56.23,-16.44 56.12,-16.82 56.11,-17.21 56.10,-17.60 56.18,-17.98 56.26,-18.36 56.43,-18.71 56.60,-19.06 56.85,-19.36 57.10,-19.65 57.41,-19.89 57.72,-20.12 58.08,-20.27 58.44,-20.41 58.83,-20.47 59.21,-20.53 59.60,-20.50 59.99,-20.46 60.35,-20.34 60.72,-20.21 61.05,-20.00 61.38,-19.79 63.43,-17.77 65.48,-15.75 67.46,-14.15 69.44,-12.55 70.82,-11.29 72.21,-10.03 73.90,-8.74 75.59,-7.45 77.21,-6.32 78.83,-5.18 80.43,-4.29 82.03,-3.40 83.88,-1.91 85.72,-0.41 86.85,0.53 87.97,1.49 89.21,2.23 90.45,2.98 91.52,4.01 92.60,5.03 93.14,5.99 93.69,6.96 94.34,8.56 95.00,10.17 95.66,11.72 96.32,13.28 96.77,15.00 97.21,16.72 97.28,18.24 97.35,19.76 97.37,20.96 97.39,22.16 97.15,23.22 96.90,24.27 96.15,25.36 95.40,26.44 94.39,26.83 93.37,27.22 91.79,27.33 90.21,27.43 89.02,27.45 87.83,27.47 86.50,27.47 85.17,27.47 83.99,27.47 82.81,27.48 81.28,27.50 79.74,27.51 78.45,27.51 77.16,27.50 75.58,27.49 73.99,27.47 72.60,27.47 71.21,27.46 68.60,27.45 66.00,27.45 65.44,27.36 64.89,27.27 64.40,27.00 63.91,26.74 63.52,26.34 63.14,25.93 62.90,25.43 62.67,24.92 62.61,24.36 62.55,23.81 62.67,23.26 62.79,22.72 63.08,22.24 63.36,21.76 63.79,21.40 64.22,21.04 64.73,20.83 65.25,20.62 65.81,20.59 66.37,20.56 66.91,20.71 67.44,20.86 67.91,21.18 68.37,21.49 68.71,21.93 69.04,22.38 69.22,22.91 69.40,23.44 69.40,24.00 69.40,24.55 69.22,25.08 69.04,25.61 68.71,26.06 68.37,26.50 67.91,26.81 67.44,27.13 66.91,27.28 66.37,27.43 65.81,27.40 65.25,27.37 64.73,27.16 64.21,26.95 63.79,26.59 63.36,26.23 63.08,25.75 62.79,25.27 62.67,24.73 62.55,24.18 62.61,23.63 62.67,23.07 62.90,22.56 63.14,22.06 63.52,21.65 63.91,21.25 64.40,20.99 64.89,20.72 65.44,20.63 66.00,20.54 66.00,20.54 65.99,20.54 68.60,20.54 71.21,20.53 72.60,20.52 73.99,20.52 75.58,20.50 77.16,20.49 78.45,20.48 79.74,20.48 81.28,20.49 82.81,20.51 83.99,20.51 85.17,20.52 87.02,20.52 88.86,20.52 89.73,21.35 90.59,22.19 90.59,21.03 90.60,19.87 90.56,18.42 90.52,16.97 90.07,15.90 89.63,14.84 89.19,12.98 88.75,11.12 87.89,9.87 87.02,8.62 86.05,7.60 85.08,6.58 83.39,5.33 81.70,4.08 80.43,2.99 79.16,1.90 78.16,1.35 77.15,0.81 75.54,-0.30 73.94,-1.42 72.03,-2.81 70.13,-4.21 69.08,-4.92 68.03,-5.63 66.79,-6.83 65.55,-8.02 64.65,-8.76 63.75,-9.50 61.75,-11.00 59.74,-12.50 58.50,-13.66 57.25,-14.83 56.98,-15.11 56.71,-15.39 56.52,-15.73 56.33,-16.07 56.23,-16.44 56.12,-16.82 56.11,-17.21 56.10,-17.60 56.18,-17.98 56.26,-18.36 56.43,-18.71 56.60,-19.06 56.85,-19.36 57.10,-19.65 57.41,-19.89 57.72,-20.12 58.08,-20.27 58.44,-20.41 58.83,-20.47 59.21,-20.53 59.60,-20.50 59.99,-20.46 60.35,-20.34 60.72,-20.21 61.05,-20.00 61.37,-19.79 61.88,-19.01 62.39,-18.24 63.48,-17.13 64.57,-16.02 65.84,-14.72 67.11,-13.42 68.59,-11.69 70.08,-9.96 70.69,-8.78 71.31,-7.59 72.21,-5.94 73.12,-4.28 73.71,-2.30 74.29,-0.32 74.74,1.28 75.20,2.89 75.19,4.65 75.18,6.42 74.12,7.45 73.06,8.49 71.48,8.62 69.91,8.76 68.15,8.66 66.39,8.56 64.26,8.29 62.14,8.02 60.71,7.80 59.28,7.58 58.13,7.56 56.98,7.53 55.62,7.52 54.26,7.52 53.09,7.49 51.91,7.46 50.51,7.45 49.10,7.45 47.81,7.42 46.53,7.40 44.87,7.44 43.20,7.48 41.98,7.44 40.77,7.41 39.26,7.42 37.76,7.42 36.25,7.43 34.73,7.43 33.20,7.44 31.67,7.44 30.10,7.44 28.53,7.44 26.87,7.42 25.21,7.41 23.26,7.35 21.31,7.28 20.13,7.05 18.95,6.82 17.57,6.82 16.18,6.82 14.98,6.74 13.78,6.67 11.49,6.19 9.20,5.70 7.97,5.47 6.75,5.23 5.54,4.83 4.33,4.43 2.98,3.78 1.64,3.13 0.50,2.83 -0.63,2.53 -0.92,2.41 -1.22,2.30 -1.47,2.12 -1.73,1.94 -1.94,1.71 -2.15,1.47 -2.29,1.19 -2.44,0.91 -2.51,0.61 -2.59,0.30 -2.59,-0.00 -2.59,-0.32 -2.51,-0.62 -2.43,-0.93 -2.29,-1.21 -2.14,-1.49 -1.93,-1.72 -1.72,-1.95 -1.46,-2.13 -1.20,-2.31 -0.91,-2.42 -0.61,-2.53 -0.30,-2.57 0.00,-2.61 0.32,-2.57 0.63,-2.53 0.63,-2.53 L 0.63,-2.53 Z"></path></g><g mask="url(#mask-w3K7PdafUmBePy8iNjIqV)" stroke-linecap="round"><g transform="translate(957.5 39.18476351669989) rotate(0 0.9388452947791848 56.81523648330011)"><path d="M0.95 -0.96 C1.29 17.94, 1.83 93.88, 1.88 113.04 M0 1.15 C0.26 20.3, 1.29 96.09, 1.4 114.59" stroke="#000000" stroke-width="1" fill="none"></path></g><g transform="translate(957.5 39.18476351669989) rotate(0 0.9388452947791848 56.81523648330011)"><path d="M-10.76 87.98 C-6.11 95.01, -1.42 102.85, 1.85 113.8 M-9.17 85.52 C-7.41 92.64, -5.05 97.27, 1.26 114.46" stroke="#000000" stroke-width="1" fill="none"></path></g><g transform="translate(957.5 39.18476351669989) rotate(0 0.9388452947791848 56.81523648330011)"><path d="M9.76 87.77 C8.43 95.02, 7.14 102.93, 1.85 113.8 M11.35 85.31 C8.86 92.44, 6.98 97.11, 1.26 114.46" stroke="#000000" stroke-width="1" fill="none"></path></g></g><mask id="mask-w3K7PdafUmBePy8iNjIqV"><rect x="0" y="0" fill="#fff" width="1058.5" height="252.1847635166999"></rect><rect x="932.4287109375" y="84.18476351669989" fill="#000" width="51.142578125" height="23" opacity="1"></rect></mask><g transform="translate(932.4287109375 84.18476351669983) rotate(0 26.010134357279185 11.815236483300112)"><text x="25.5712890625" y="0" font-family="Helvetica, Segoe UI Emoji" font-size="20px" fill="#000000" text-anchor="middle" style="white-space: pre;" direction="ltr" dominant-baseline="text-before-edge">frente</text></g><g mask="url(#mask-qXcyMK2yNEMX-q6f-3tDD)" stroke-linecap="round"><g transform="translate(674 79.5) rotate(0 0 39)"><path d="M0 0 C0 13, 0 65, 0 78 M0 0 C0 13, 0 65, 0 78" stroke="#000000" stroke-width="1" fill="none"></path></g><g transform="translate(674 79.5) rotate(0 0 39)"><path d="M-10.26 49.81 C-7.08 58.54, -3.9 67.28, 0 78 M-10.26 49.81 C-7.96 56.13, -5.66 62.46, 0 78" stroke="#000000" stroke-width="1" fill="none"></path></g><g transform="translate(674 79.5) rotate(0 0 39)"><path d="M10.26 49.81 C7.08 58.54, 3.9 67.28, 0 78 M10.26 49.81 C7.96 56.13, 5.66 62.46, 0 78" stroke="#000000" stroke-width="1" fill="none"></path></g></g><mask id="mask-qXcyMK2yNEMX-q6f-3tDD"><rect x="0" y="0" fill="#fff" width="774" height="257.5"></rect><rect x="647.3251953125" y="107" fill="#000" width="53.349609375" height="23" opacity="1"></rect></mask><g transform="translate(647.3251953125 107) rotate(0 26.6748046875 11.5)"><text x="26.6748046875" y="0" font-family="Helvetica, Segoe UI Emoji" font-size="20px" fill="#000000" text-anchor="middle" style="white-space: pre;" direction="ltr" dominant-baseline="text-before-edge">ultimo</text></g><g stroke-linecap="round" transform="translate(604 22) rotate(0 314.5 143.5)"><path d="M32 0 M32 0 C193.81 0, 355.62 0, 597 0 M32 0 C256.2 0, 480.41 0, 597 0 M597 0 C618.33 0, 629 10.67, 629 32 M597 0 C618.33 0, 629 10.67, 629 32 M629 32 C629 95.59, 629 159.19, 629 255 M629 32 C629 100.92, 629 169.83, 629 255 M629 255 C629 276.33, 618.33 287, 597 287 M629 255 C629 276.33, 618.33 287, 597 287 M597 287 C386.39 287, 175.78 287, 32 287 M597 287 C468.3 287, 339.6 287, 32 287 M32 287 C10.67 287, 0 276.33, 0 255 M32 287 C10.67 287, 0 276.33, 0 255 M0 255 C0 167.6, 0 80.2, 0 32 M0 255 C0 180.05, 0 105.09, 0 32 M0 32 C0 10.67, 10.67 0, 32 0 M0 32 C0 10.67, 10.67 0, 32 0" stroke="#000000" stroke-width="1" fill="none"></path></g></svg>