<svg version="1.1" xmlns="http://www.w3.org/2000/svg" viewBox="0 0 1188 263" width="1188" height="263">
  <!-- svg-source:excalidraw -->
  
  <defs>
    <style class="style-fonts">
      @font-face {
        font-family: "Virgil";
        src: url("https://excalidraw.com/Virgil.woff2");
      }
      @font-face {
        font-family: "Cascadia";
        src: url("https://excalidraw.com/Cascadia.woff2");
      }
    </style>
  </defs>
  <rect x="0" y="0" width="1188" height="263" fill="#ffffff"></rect><g stroke-linecap="round" transform="translate(42 113) rotate(0 235 44.5)"><path d="M0 0 C100.17 0, 200.35 0, 470 0 M0 0 C161.69 0, 323.38 0, 470 0 M470 0 C470 31.5, 470 62.99, 470 89 M470 0 C470 32.26, 470 64.52, 470 89 M470 89 C339.43 89, 208.87 89, 0 89 M470 89 C295.97 89, 121.94 89, 0 89 M0 89 C0 53.7, 0 18.41, 0 0 M0 89 C0 56.91, 0 24.83, 0 0" stroke="#000000" stroke-width="1" fill="none"></path></g><g stroke-linecap="round" transform="translate(42 113) rotate(0 47 44.5)"><path d="M0 0 C27.48 0, 54.96 0, 94 0 M0 0 C20.6 0, 41.19 0, 94 0 M94 0 C94 28.3, 94 56.6, 94 89 M94 0 C94 21.81, 94 43.62, 94 89 M94 89 C72.37 89, 50.74 89, 0 89 M94 89 C74.45 89, 54.89 89, 0 89 M0 89 C0 55.4, 0 21.79, 0 0 M0 89 C0 64.07, 0 39.15, 0 0" stroke="#000000" stroke-width="1" fill="none"></path></g><g stroke-linecap="round" transform="translate(136 112.5) rotate(0 47 44.5)"><path d="M0 0 C27.48 0, 54.96 0, 94 0 M0 0 C20.6 0, 41.19 0, 94 0 M94 0 C94 28.3, 94 56.6, 94 89 M94 0 C94 21.81, 94 43.62, 94 89 M94 89 C72.37 89, 50.74 89, 0 89 M94 89 C74.45 89, 54.89 89, 0 89 M0 89 C0 55.4, 0 21.79, 0 0 M0 89 C0 64.07, 0 39.15, 0 0" stroke="#000000" stroke-width="1" fill="none"></path></g><g stroke-linecap="round" transform="translate(230 112.5) rotate(0 47 44.5)"><path d="M0 0 C27.48 0, 54.96 0, 94 0 M0 0 C20.6 0, 41.19 0, 94 0 M94 0 C94 28.3, 94 56.6, 94 89 M94 0 C94 21.81, 94 43.62, 94 89 M94 89 C72.37 89, 50.74 89, 0 89 M94 89 C74.45 89, 54.89 89, 0 89 M0 89 C0 55.4, 0 21.79, 0 0 M0 89 C0 64.07, 0 39.15, 0 0" stroke="#000000" stroke-width="1" fill="none"></path></g><g stroke-linecap="round" transform="translate(324 112.5) rotate(0 47 44.5)"><path d="M0 0 C27.48 0, 54.96 0, 94 0 M0 0 C20.6 0, 41.19 0, 94 0 M94 0 C94 28.3, 94 56.6, 94 89 M94 0 C94 21.81, 94 43.62, 94 89 M94 89 C72.37 89, 50.74 89, 0 89 M94 89 C74.45 89, 54.89 89, 0 89 M0 89 C0 55.4, 0 21.79, 0 0 M0 89 C0 64.07, 0 39.15, 0 0" stroke="#000000" stroke-width="1" fill="none"></path></g><g stroke-linecap="round" transform="translate(418 112.5) rotate(0 47 44.5)"><path d="M0 0 C27.48 0, 54.96 0, 94 0 M0 0 C20.6 0, 41.19 0, 94 0 M94 0 C94 28.3, 94 56.6, 94 89 M94 0 C94 21.81, 94 43.62, 94 89 M94 89 C72.37 89, 50.74 89, 0 89 M94 89 C74.45 89, 54.89 89, 0 89 M0 89 C0 55.4, 0 21.79, 0 0 M0 89 C0 64.07, 0 39.15, 0 0" stroke="#000000" stroke-width="1" fill="none"></path></g><g transform="translate(61 49) rotate(0 27.0458984375 11.5)"><text x="0" y="0" font-family="Helvetica, Segoe UI Emoji" font-size="20px" fill="#000000" text-anchor="start" style="white-space: pre;" direction="ltr" dominant-baseline="text-before-edge">LISTA</text></g><g stroke-linecap="round" transform="translate(665 115.75) rotate(0 235 44.5)"><path d="M0 0 C100.17 0, 200.35 0, 470 0 M0 0 C161.69 0, 323.38 0, 470 0 M470 0 C470 31.5, 470 62.99, 470 89 M470 0 C470 32.26, 470 64.52, 470 89 M470 89 C339.43 89, 208.87 89, 0 89 M470 89 C295.97 89, 121.94 89, 0 89 M0 89 C0 53.7, 0 18.41, 0 0 M0 89 C0 56.91, 0 24.83, 0 0" stroke="#000000" stroke-width="1" fill="none"></path></g><g stroke-linecap="round" transform="translate(665 115.75) rotate(0 47 44.5)"><path d="M0 0 C27.48 0, 54.96 0, 94 0 M0 0 C20.6 0, 41.19 0, 94 0 M94 0 C94 28.3, 94 56.6, 94 89 M94 0 C94 21.81, 94 43.62, 94 89 M94 89 C72.37 89, 50.74 89, 0 89 M94 89 C74.45 89, 54.89 89, 0 89 M0 89 C0 55.4, 0 21.79, 0 0 M0 89 C0 64.07, 0 39.15, 0 0" stroke="#000000" stroke-width="1" fill="none"></path></g><g stroke-linecap="round" transform="translate(759 115.25) rotate(0 47 44.5)"><path d="M0 0 C27.48 0, 54.96 0, 94 0 M0 0 C20.6 0, 41.19 0, 94 0 M94 0 C94 28.3, 94 56.6, 94 89 M94 0 C94 21.81, 94 43.62, 94 89 M94 89 C72.37 89, 50.74 89, 0 89 M94 89 C74.45 89, 54.89 89, 0 89 M0 89 C0 55.4, 0 21.79, 0 0 M0 89 C0 64.07, 0 39.15, 0 0" stroke="#000000" stroke-width="1" fill="none"></path></g><g stroke-linecap="round" transform="translate(853 115.25) rotate(0 47 44.5)"><path d="M0 0 C27.48 0, 54.96 0, 94 0 M0 0 C20.6 0, 41.19 0, 94 0 M94 0 C94 28.3, 94 56.6, 94 89 M94 0 C94 21.81, 94 43.62, 94 89 M94 89 C72.37 89, 50.74 89, 0 89 M94 89 C74.45 89, 54.89 89, 0 89 M0 89 C0 55.4, 0 21.79, 0 0 M0 89 C0 64.07, 0 39.15, 0 0" stroke="#000000" stroke-width="1" fill="none"></path></g><g stroke-linecap="round" transform="translate(947 115.25) rotate(0 47 44.5)"><path d="M0 0 C27.48 0, 54.96 0, 94 0 M0 0 C20.6 0, 41.19 0, 94 0 M94 0 C94 28.3, 94 56.6, 94 89 M94 0 C94 21.81, 94 43.62, 94 89 M94 89 C72.37 89, 50.74 89, 0 89 M94 89 C74.45 89, 54.89 89, 0 89 M0 89 C0 55.4, 0 21.79, 0 0 M0 89 C0 64.07, 0 39.15, 0 0" stroke="#000000" stroke-width="1" fill="none"></path></g><g stroke-linecap="round" transform="translate(1041 115.25) rotate(0 47 44.5)"><path d="M0 0 C27.48 0, 54.96 0, 94 0 M0 0 C20.6 0, 41.19 0, 94 0 M94 0 C94 28.3, 94 56.6, 94 89 M94 0 C94 21.81, 94 43.62, 94 89 M94 89 C72.37 89, 50.74 89, 0 89 M94 89 C74.45 89, 54.89 89, 0 89 M0 89 C0 55.4, 0 21.79, 0 0 M0 89 C0 64.07, 0 39.15, 0 0" stroke="#000000" stroke-width="1" fill="none"></path></g><g transform="translate(656 86) rotate(0 -77.5 -16.5)" stroke="none"><path fill="#000000" d="M -2.58,0.64 Q -2.58,0.64 -2.88,-0.49 -3.18,-1.62 -3.99,-3.00 -4.81,-4.38 -5.98,-5.24 -7.15,-6.09 -8.26,-7.08 -9.38,-8.07 -10.75,-8.82 -12.13,-9.57 -13.96,-11.07 -15.79,-12.57 -17.07,-13.57 -18.36,-14.57 -20.45,-15.47 -22.54,-16.37 -23.47,-17.01 -24.40,-17.65 -26.39,-18.15 -28.38,-18.64 -29.51,-19.14 -30.64,-19.63 -32.04,-20.13 -33.45,-20.63 -34.79,-21.17 -36.14,-21.71 -38.11,-22.30 -40.09,-22.89 -41.58,-22.95 -43.08,-23.02 -44.52,-23.39 -45.96,-23.76 -47.19,-24.23 -48.42,-24.70 -50.44,-25.21 -52.46,-25.72 -55.02,-26.25 -57.58,-26.77 -59.93,-27.29 -62.28,-27.80 -63.59,-28.26 -64.90,-28.72 -66.07,-28.88 -67.24,-29.03 -68.34,-29.09 -69.44,-29.15 -71.02,-29.53 -72.59,-29.90 -74.93,-30.38 -77.26,-30.87 -78.97,-30.97 -80.67,-31.08 -83.00,-31.43 -85.33,-31.79 -87.39,-32.25 -89.45,-32.72 -91.08,-32.83 -92.70,-32.95 -94.50,-32.97 -96.30,-32.99 -97.69,-32.95 -99.09,-32.92 -100.57,-32.89 -102.04,-32.86 -103.54,-32.84 -105.04,-32.81 -106.78,-32.82 -108.51,-32.82 -110.50,-32.34 -112.49,-31.85 -113.41,-31.27 -114.33,-30.69 -115.65,-30.39 -116.97,-30.09 -118.56,-28.99 -120.15,-27.88 -121.07,-27.08 -121.99,-26.28 -122.78,-25.56 -123.56,-24.83 -124.71,-24.05 -125.87,-23.26 -127.30,-22.40 -128.74,-21.53 -130.40,-20.31 -132.05,-19.10 -132.81,-18.21 -133.57,-17.33 -134.74,-15.97 -135.90,-14.62 -136.94,-13.89 -137.99,-13.17 -139.03,-12.13 -140.07,-11.09 -140.86,-9.63 -141.65,-8.16 -142.76,-6.85 -143.86,-5.53 -144.85,-4.51 -145.84,-3.48 -146.85,-1.56 -147.86,0.36 -149.23,1.40 -150.60,2.45 -151.93,4.23 -153.26,6.02 -153.79,6.21 -154.32,6.41 -154.88,6.43 -155.44,6.45 -155.98,6.29 -156.52,6.12 -156.98,5.80 -157.44,5.47 -157.77,5.02 -158.11,4.56 -158.27,4.02 -158.44,3.49 -158.43,2.92 -158.42,2.36 -158.23,1.83 -158.04,1.30 -157.69,0.86 -157.34,0.42 -156.86,0.11 -156.39,-0.19 -155.84,-0.32 -155.30,-0.46 -154.74,-0.42 -154.17,-0.38 -153.66,-0.16 -153.14,0.05 -152.72,0.42 -152.29,0.80 -152.01,1.29 -151.73,1.78 -151.62,2.33 -151.51,2.88 -151.59,3.44 -151.66,4.00 -151.91,4.50 -152.16,5.01 -152.55,5.41 -152.95,5.81 -153.45,6.06 -153.95,6.32 -154.51,6.40 -155.07,6.48 -155.62,6.37 -156.18,6.27 -156.67,6.00 -157.16,5.72 -157.54,5.30 -157.92,4.89 -158.14,4.37 -158.37,3.85 -158.42,3.29 -158.47,2.73 -158.33,2.18 -158.20,1.64 -157.90,1.16 -157.60,0.68 -157.16,0.33 -156.73,-0.02 -156.73,-0.02 -156.73,-0.02 -156.32,-0.48 -155.92,-0.94 -154.44,-2.37 -152.96,-3.81 -152.35,-4.93 -151.75,-6.06 -151.22,-7.03 -150.68,-8.00 -149.69,-9.00 -148.71,-10.00 -147.71,-11.09 -146.71,-12.17 -146.04,-13.58 -145.37,-14.99 -144.25,-15.79 -143.14,-16.59 -141.86,-17.80 -140.58,-19.01 -139.66,-20.01 -138.75,-21.01 -137.08,-22.74 -135.42,-24.47 -134.06,-25.48 -132.70,-26.49 -131.44,-27.42 -130.19,-28.35 -129.11,-28.92 -128.03,-29.48 -127.19,-30.33 -126.35,-31.18 -124.88,-32.34 -123.42,-33.51 -121.96,-34.46 -120.51,-35.40 -119.39,-35.91 -118.26,-36.43 -116.87,-36.91 -115.48,-37.39 -113.35,-37.89 -111.21,-38.38 -109.96,-38.77 -108.71,-39.17 -106.87,-39.17 -105.04,-39.18 -103.54,-39.15 -102.04,-39.13 -100.55,-39.10 -99.07,-39.07 -97.66,-39.02 -96.24,-38.97 -94.29,-38.91 -92.33,-38.86 -91.21,-38.78 -90.09,-38.70 -88.12,-38.19 -86.14,-37.69 -84.92,-37.51 -83.70,-37.32 -82.01,-37.02 -80.33,-36.73 -79.20,-36.63 -78.08,-36.54 -76.02,-36.02 -73.96,-35.49 -72.66,-35.32 -71.36,-35.14 -70.21,-34.87 -69.06,-34.60 -67.80,-34.51 -66.54,-34.41 -64.86,-34.19 -63.19,-33.98 -61.04,-33.26 -58.89,-32.54 -57.56,-32.36 -56.23,-32.18 -54.99,-31.89 -53.74,-31.61 -51.35,-31.09 -48.96,-30.57 -46.73,-29.94 -44.49,-29.30 -42.68,-28.93 -40.87,-28.56 -38.84,-27.98 -36.82,-27.40 -35.48,-27.11 -34.15,-26.83 -32.99,-26.38 -31.84,-25.94 -30.06,-25.48 -28.28,-25.02 -26.45,-24.28 -24.61,-23.53 -22.17,-22.58 -19.72,-21.62 -18.78,-21.13 -17.84,-20.63 -16.48,-20.21 -15.11,-19.79 -13.38,-18.44 -11.66,-17.09 -10.41,-16.02 -9.17,-14.95 -8.19,-14.42 -7.20,-13.88 -6.17,-13.18 -5.14,-12.49 -3.97,-11.29 -2.80,-10.10 -1.92,-9.42 -1.04,-8.74 0.00,-6.94 1.04,-5.14 1.53,-4.05 2.03,-2.97 2.30,-1.80 2.58,-0.64 2.62,-0.32 2.66,-0.00 2.62,0.31 2.59,0.62 2.47,0.93 2.36,1.23 2.18,1.49 2.00,1.76 1.76,1.97 1.52,2.18 1.23,2.33 0.95,2.48 0.64,2.56 0.32,2.64 0.00,2.64 -0.31,2.64 -0.62,2.57 -0.93,2.49 -1.22,2.34 -1.50,2.19 -1.74,1.98 -1.98,1.77 -2.17,1.51 -2.35,1.24 -2.47,0.94 -2.58,0.64 -2.58,0.64 L -2.58,0.64 Z"></path></g><g transform="translate(657 81) rotate(0 -1 -9)" stroke="none"><path fill="#000000" d="M -2.67,0 Q -2.67,0 -2.68,-1.15 -2.70,-2.3 -2.77,-3.69 -2.84,-5.08 -3.31,-6.72 -3.78,-8.36 -3.91,-10.13 -4.03,-11.90 -4.62,-14.91 -5.21,-17.93 -5.14,-18.45 -5.06,-18.96 -4.83,-19.43 -4.59,-19.89 -4.22,-20.26 -3.85,-20.62 -3.38,-20.85 -2.92,-21.08 -2.40,-21.15 -1.88,-21.21 -1.37,-21.11 -0.86,-21.01 -0.41,-20.75 0.03,-20.49 0.38,-20.10 0.72,-19.71 0.92,-19.23 1.12,-18.75 1.16,-18.23 1.20,-17.71 1.07,-17.20 0.94,-16.70 0.66,-16.26 0.37,-15.83 -0.02,-15.50 -0.43,-15.18 -0.92,-15.01 -1.41,-14.83 -1.93,-14.82 -2.45,-14.81 -2.95,-14.97 -3.45,-15.12 -3.87,-15.43 -4.29,-15.74 -4.59,-16.16 -4.89,-16.59 -5.04,-17.09 -5.19,-17.59 -5.17,-18.11 -5.15,-18.63 -4.97,-19.11 -4.78,-19.60 -4.45,-20.00 -4.13,-20.41 -3.68,-20.68 -3.24,-20.96 -2.74,-21.08 -2.23,-21.21 -1.71,-21.16 -1.19,-21.11 -0.72,-20.90 -0.24,-20.69 0.13,-20.34 0.52,-19.99 0.77,-19.54 1.03,-19.08 1.12,-18.57 1.21,-18.06 1.21,-18.06 1.21,-18.06 0.91,-16.94 0.60,-15.82 1.17,-14.91 1.74,-14.00 1.92,-12.41 2.09,-10.82 2.07,-9.71 2.04,-8.60 2.44,-6.84 2.84,-5.08 2.77,-3.69 2.70,-2.3 2.68,-1.15 2.67,0 2.63,0.31 2.59,0.63 2.47,0.94 2.36,1.24 2.18,1.50 1.99,1.77 1.75,1.98 1.51,2.19 1.23,2.34 0.94,2.49 0.63,2.57 0.32,2.65 -0.00,2.65 -0.32,2.65 -0.63,2.57 -0.94,2.49 -1.23,2.34 -1.51,2.19 -1.75,1.98 -1.99,1.77 -2.18,1.50 -2.36,1.24 -2.47,0.94 -2.59,0.63 -2.63,0.31 -2.67,-0.00 -2.67,-0.00 L -2.67,0 Z"></path></g><g transform="translate(659 81) rotate(0 -14 2.5)" stroke="none"><path fill="#000000" d="M 1.87,1.87 Q 1.87,1.87 1.30,2.49 0.72,3.11 -0.70,3.70 -2.13,4.29 -3.53,5.09 -4.93,5.90 -6.04,5.99 -7.14,6.08 -8.30,6.50 -9.46,6.92 -11.08,7.05 -12.71,7.17 -13.93,7.22 -15.15,7.26 -16.48,7.28 -17.81,7.29 -18.99,7.31 -20.18,7.34 -21.62,7.34 -23.06,7.35 -25.13,7.82 -27.20,8.29 -27.74,8.34 -28.29,8.38 -28.82,8.24 -29.36,8.11 -29.82,7.81 -30.28,7.51 -30.62,7.08 -30.96,6.65 -31.15,6.13 -31.33,5.61 -31.34,5.07 -31.36,4.52 -31.19,3.99 -31.03,3.47 -30.70,3.02 -30.38,2.58 -29.93,2.26 -29.48,1.94 -28.96,1.79 -28.43,1.63 -27.88,1.65 -27.33,1.66 -26.82,1.86 -26.31,2.05 -25.88,2.40 -25.45,2.74 -25.16,3.21 -24.87,3.67 -24.74,4.21 -24.61,4.74 -24.66,5.29 -24.71,5.83 -24.93,6.34 -25.15,6.84 -25.52,7.25 -25.88,7.65 -26.36,7.92 -26.84,8.19 -27.38,8.29 -27.92,8.39 -28.47,8.31 -29.01,8.23 -29.50,7.99 -29.99,7.74 -30.38,7.35 -30.76,6.96 -31.01,6.46 -31.25,5.97 -31.32,5.43 -31.39,4.88 -31.28,4.34 -31.17,3.80 -30.90,3.33 -30.63,2.85 -30.22,2.49 -29.81,2.12 -29.30,1.91 -28.79,1.70 -28.79,1.70 -28.79,1.70 -25.93,1.17 -23.06,0.64 -21.62,0.65 -20.18,0.65 -19.00,0.67 -17.82,0.69 -16.51,0.71 -15.20,0.72 -14.04,0.73 -12.89,0.75 -11.41,0.69 -9.92,0.63 -7.88,0.65 -5.84,0.68 -4.43,-0.06 -3.02,-0.81 -2.45,-1.34 -1.87,-1.87 -1.62,-2.07 -1.37,-2.26 -1.08,-2.39 -0.78,-2.53 -0.47,-2.58 -0.16,-2.64 0.15,-2.62 0.47,-2.60 0.78,-2.51 1.08,-2.41 1.36,-2.25 1.63,-2.08 1.86,-1.86 2.08,-1.63 2.25,-1.36 2.41,-1.08 2.51,-0.78 2.60,-0.47 2.62,-0.15 2.64,0.16 2.58,0.47 2.53,0.78 2.39,1.08 2.26,1.37 2.07,1.62 1.87,1.87 1.87,1.87 L 1.87,1.87 Z"></path></g><g stroke-linecap="round" transform="translate(10 10) rotate(0 584 121.5)"><path d="M0 0 C342.25 0, 684.51 0, 1168 0 M0 0 C306.73 0, 613.45 0, 1168 0 M1168 0 C1168 68.23, 1168 136.47, 1168 243 M1168 0 C1168 51.08, 1168 102.15, 1168 243 M1168 243 C739.59 243, 311.17 243, 0 243 M1168 243 C852.08 243, 536.16 243, 0 243 M0 243 C0 183.36, 0 123.72, 0 0 M0 243 C0 193.34, 0 143.68, 0 0" stroke="#000000" stroke-width="1" fill="none"></path></g></svg>