<svg version="1.1" xmlns="http://www.w3.org/2000/svg" viewBox="0 0 467 301" width="467" height="301">
  <!-- svg-source:excalidraw -->
  
  <defs>
    <style class="style-fonts">
      @font-face {
        font-family: "Virgil";
        src: url("https://excalidraw.com/Virgil.woff2");
      }
      @font-face {
        font-family: "Cascadia";
        src: url("https://excalidraw.com/Cascadia.woff2");
      }
    </style>
  </defs>
  <rect x="0" y="0" width="467" height="301" fill="#ffffff"></rect><g stroke-linecap="round" transform="translate(64 77) rotate(0 35 39)"><path d="M0 0 C22.72 0, 45.43 0, 70 0 M0 0 C24.3 0, 48.6 0, 70 0 M70 0 C70 21.29, 70 42.58, 70 78 M70 0 C70 23.02, 70 46.04, 70 78 M70 78 C54.2 78, 38.39 78, 0 78 M70 78 C47.44 78, 24.88 78, 0 78 M0 78 C0 48.37, 0 18.73, 0 0 M0 78 C0 56.23, 0 34.46, 0 0" stroke="#000000" stroke-width="2" fill="none"></path></g><g stroke-linecap="round" transform="translate(135 77) rotate(0 35 39)"><path d="M0 0 C26.66 0, 53.31 0, 70 0 M0 0 C24.24 0, 48.49 0, 70 0 M70 0 C70 18.19, 70 36.39, 70 78 M70 0 C70 21.88, 70 43.77, 70 78 M70 78 C45.18 78, 20.36 78, 0 78 M70 78 C54.9 78, 39.8 78, 0 78 M0 78 C0 48.91, 0 19.81, 0 0 M0 78 C0 50.64, 0 23.28, 0 0" stroke="#000000" stroke-width="2" fill="none"></path></g><g transform="translate(69 26) rotate(0 30.5859375 11.5)"><text x="0" y="0" font-family="Helvetica, Segoe UI Emoji" font-size="20px" fill="#000000" text-anchor="start" style="white-space: pre;" direction="ltr" dominant-baseline="text-before-edge">nodo_t</text></g><g stroke-linecap="round"><g transform="translate(101 116) rotate(0 0 60.5)"><path d="M0 0 C0 44.15, 0 88.29, 0 121 M0 0 C0 24.98, 0 49.96, 0 121" stroke="#000000" stroke-width="2" fill="none"></path></g><g transform="translate(101 116) rotate(0 0 60.5)"><path d="M-10.26 92.81 C-6.52 103.09, -2.77 113.38, 0 121 M-10.26 92.81 C-8.14 98.63, -6.02 104.45, 0 121" stroke="#000000" stroke-width="2" fill="none"></path></g><g transform="translate(101 116) rotate(0 0 60.5)"><path d="M10.26 92.81 C6.52 103.09, 2.77 113.38, 0 121 M10.26 92.81 C8.14 98.63, 6.02 104.45, 0 121" stroke="#000000" stroke-width="2" fill="none"></path></g></g><mask></mask><g transform="translate(32 255) rotate(0 66.15234375 11.5)"><text x="0" y="0" font-family="Helvetica, Segoe UI Emoji" font-size="20px" fill="#000000" text-anchor="start" style="white-space: pre;" direction="ltr" dominant-baseline="text-before-edge">void *elemento</text></g><g stroke-linecap="round"><g transform="translate(169 115) rotate(0 48.5 0)"><path d="M0 0 C35.06 0, 70.11 0, 97 0 M0 0 C19.46 0, 38.93 0, 97 0" stroke="#000000" stroke-width="2" fill="none"></path></g><g transform="translate(169 115) rotate(0 48.5 0)"><path d="M68.81 10.26 C79 6.55, 89.19 2.84, 97 0 M68.81 10.26 C74.47 8.2, 80.12 6.14, 97 0" stroke="#000000" stroke-width="2" fill="none"></path></g><g transform="translate(169 115) rotate(0 48.5 0)"><path d="M68.81 -10.26 C79 -6.55, 89.19 -2.84, 97 0 M68.81 -10.26 C74.47 -8.2, 80.12 -6.14, 97 0" stroke="#000000" stroke-width="2" fill="none"></path></g></g><mask></mask><g transform="translate(271 104) rotate(0 77.28515625 11.5)"><text x="0" y="0" font-family="Helvetica, Segoe UI Emoji" font-size="20px" fill="#000000" text-anchor="start" style="white-space: pre;" direction="ltr" dominant-baseline="text-before-edge">nodo_t *siguiente</text></g><g stroke-linecap="round" transform="translate(10 10) rotate(0 223.5 140.5)"><path d="M0 0 C116.97 0, 233.93 0, 447 0 M0 0 C133.19 0, 266.37 0, 447 0 M447 0 C447 69.97, 447 139.94, 447 281 M447 0 C447 107.28, 447 214.57, 447 281 M447 281 C322.57 281, 198.14 281, 0 281 M447 281 C270.76 281, 94.52 281, 0 281 M0 281 C0 198.55, 0 116.09, 0 0 M0 281 C0 222.11, 0 163.22, 0 0" stroke="#000000" stroke-width="1" fill="none"></path></g></svg>